<?xml version="1.0" encoding="utf-8"?>
<!-- Generator: Adobe Illustrator 27.5.0, SVG Export Plug-In . SVG Version: 6.00 Build 0)  -->
<svg version="1.1" xmlns="http://www.w3.org/2000/svg" xmlns:xlink="http://www.w3.org/1999/xlink" x="0px" y="0px"
	 viewBox="0 0 750 500" style="enable-background:new 0 0 750 500;" xml:space="preserve">
<g id="BACKGROUND">
	<rect style="fill:transparent;" width="750" height="499.999"/>
</g>
<g id="OBJECTS">
	<g>
		<path style="fill:#FFEAE6;" d="M683.236,301.892c4.139-45.811,2.357-97.151-25.694-145.698
			c-21.424-37.075-73.008-80.781-121.859-96.754C473.895,39.24,416.09,70.169,356.193,75.63
			c-53.551,4.879-108.727-13.591-161.09-3.892c-37.515,6.951-68.668,28.082-87.794,53.602
			c-19.125,25.519-27.244,55.123-29.887,84.525c-5.118,56.819,10.078,114.594,42.468,166.071
			c16.191,25.728,39.048,46.001,59.35,69.353c20.69,23.789,352.965,11.685,407.64-1.044
			C656.53,428.02,678.386,355.567,683.236,301.892z"/>
		<g>
			<path style="fill:#FFFFFF;" d="M417.763,133.262c14.371-10.616,33.172-27.21,51.421-36.996
				c20.78-11.142,29.239-5.938,22.69,17.199c13.488-7.396,30.617-20.773,46.735-20.895c18.746-0.141,9.284,11.412,8.825,23.235
				c12.098,0.418,24.688-19.775,36.802-7.236c4.698,4.864,1.59,12.249,5.216,17.048c3.729,4.928,12.921,5.724,16.889,9.871
				c-21.715,10.381-50.386,7.22-74.171,6.132c-19.118-0.875-38.552,0.029-57.745-0.959c-11.108-0.572-54.43,2.164-60.234-6.165
				c2.939-1.663,6.523-4.017,9.738-4.934"/>
			<path style="fill:#FFFFFF;" d="M503.581,213.606c9.712-7.174,22.417-18.387,34.75-25c14.038-7.53,19.757-4.012,15.333,11.623
				c9.112-4.997,20.69-14.038,31.581-14.12c12.669-0.095,6.274,7.712,5.964,15.702c8.177,0.282,16.686-13.364,24.87-4.89
				c3.175,3.286,1.074,8.277,3.525,11.519c2.517,3.331,8.732,3.869,11.411,6.671c-14.674,7.015-34.049,4.879-50.121,4.144
				c-12.921-0.591-26.054,0.02-39.024-0.648c-7.505-0.386-36.782,1.462-40.703-4.167c1.984-1.123,4.408-2.713,6.58-3.333"/>
			<path style="fill:#FFFFFF;" d="M103.153,223.654c12.185-8.138,28.123-20.857,43.59-28.358
				c17.614-8.541,24.785-4.551,19.236,13.183c11.433-5.668,25.954-15.922,39.617-16.017c15.89-0.107,7.869,8.749,7.482,17.812
				c10.255,0.319,20.927-15.159,31.194-5.547c3.983,3.728,1.349,9.39,4.422,13.067c3.159,3.777,10.953,4.388,14.317,7.568
				c-18.409,7.957-42.713,5.533-62.876,4.699c-16.206-0.67-32.682,0.021-48.95-0.734c-9.415-0.439-46.141,1.658-51.061-4.727
				c2.489-1.273,5.531-3.078,8.254-3.782"/>
		</g>
		<g>
			<path style="fill:#C5DBBB;" d="M541.16,232.277c-8.6,81.369-81.528,140.353-162.891,131.755
				c-81.365-8.593-140.357-81.53-131.756-162.896c8.599-81.358,81.528-140.346,162.894-131.745
				C490.767,77.987,549.757,150.917,541.16,232.277z"/>
			<g>
				<defs>
					<path id="SVGID_1_" d="M541.185,232.281c-8.602,81.38-81.544,140.383-162.921,131.779
						c-81.382-8.602-140.376-81.544-131.777-162.924c8.599-81.376,81.54-140.377,162.921-131.776
						C490.782,77.962,549.782,150.906,541.185,232.281z"/>
				</defs>
				<clipPath id="SVGID_00000119837678525004502170000006826677428961934759_">
					<use xlink:href="#SVGID_1_"  style="overflow:visible;"/>
				</clipPath>
				<path style="clip-path:url(#SVGID_00000119837678525004502170000006826677428961934759_);fill:#95B374;" d="M434.478,68.614
					l-4.95-0.475l0.819-1.356l-2.87,0.161l1.643-1.023l-1.042-0.074c-0.584-0.04-1.179-0.156-1.805-0.272
					c-1.976-0.375-4.193-0.792-6.408,1.173l0.658-2.949l-3.525,1.286c0.416-0.71,0.539-1.298,0.367-1.791
					c-0.229-0.657-0.971-1.007-2.138-1.021c-0.84-0.01-1.684,0.414-2.494,0.825c-0.23,0.118-0.465,0.236-0.702,0.342
					c-0.425,0.195-0.823,0.475-1.208,0.743c-0.093,0.069-0.185,0.129-0.277,0.192l-0.072-0.115l2.589-2.926l-0.336-0.228
					c-1.936-1.311-3.588-1.728-4.918-1.24c-0.856,0.309-1.561,0.985-2.113,2.003l-0.923-2.144l-0.298,0.336
					c-0.226,0.254-0.443,0.487-0.647,0.707c-0.42,0.45-0.816,0.875-1.141,1.363c-1.177,1.759-2.715,1.721-4.341,1.673
					c-0.364-0.008-0.729-0.018-1.092-0.014l-0.113,0.008c-0.035,0.003-0.083,0.006-0.12,0.008c-0.187-0.714-0.482-1.159-0.9-1.353
					c-0.681-0.326-1.457,0.189-2.021,0.562c-0.147,0.105-0.291,0.196-0.401,0.253c-0.969,0.496-1.746,0.216-2.569-0.083
					c-0.375-0.135-0.758-0.273-1.167-0.342c-0.595-0.102-1.19-0.026-1.768,0.048c-0.196,0.022-0.392,0.047-0.575,0.063
					c-0.089-0.087-0.188-0.197-0.285-0.306c-0.382-0.433-0.811-0.924-1.34-0.94c-0.576-0.019-1.153,0.353-1.656,0.682
					c-0.052,0.035-0.107,0.071-0.159,0.104c-0.04-0.384-0.179-0.693-0.395-0.931c-0.633-0.659-1.791-0.479-2.602-0.287
					c-1.878,0.441-3.744,1.133-5.548,1.803l-0.746,0.28c-0.477,0.173-1.156,0.607-1.521,1.244c-0.368,0.649-0.632,1.374-0.891,2.075
					c-0.065,0.179-0.137,0.363-0.207,0.543l-0.173-0.083l-0.182-0.627l-0.207-0.704l-0.282,0.117
					c-0.01,0.003-0.012,0.006-0.015,0.006l-7.671,2.009l-0.066,0.143c-0.301,0.632-0.425,1.184-0.354,1.655
					c-0.076-0.082-0.165-0.161-0.237-0.245c-0.145-0.159-0.42,0.072-0.291,0.241c2.212,2.83,5.113,4.046,8.209,5.582
					c1.456,0.721,2.967,1.549,3.962,2.86c0.582,0.771,0.589,1.635,0.182,2.476c-0.605,1.251-2.056,0.848-3.117,1.298
					c-0.557,0.232-1.382,1.375-0.9,2.002c0.433,0.565,1.827,1.227,1.047,2.223c-0.53,0.668-1.548,1.045-2.199,1.584
					c-1.018,0.827-1.34,1.906-0.998,3.136c0.456,1.56-0.067,2.607-0.381,4.063c-0.19,0.862,0.139,1.88,0.407,2.691
					c1.12,3.461,4.066,7.824,7.72,8.85c1.461,0.41,2.873-0.537,3.922-1.43c2.117-1.814,4.051-3.748,6.351-5.372
					c4.556-3.203,10.102-6.267,15.461-7.807c3.085-0.885,6.016-0.581,9.105,0.005c2.106,0.4,4.026,0.342,5.828-0.887
					c1.741-1.191,3.555-3.347,3.797-5.512c0.077-0.687-0.106-1.418-0.421-2.028c-0.889-1.717,0.959-2.28,2.302-3.005
					c2.044-1.108,4.293-2.223,5.095-4.585c0.443-1.308,0.887-2.575,1.409-3.85c0.206-0.508,0.486-1.086,0.624-1.67
					c0.774-0.006,1.546-0.028,2.306-0.054c0.548-0.018,1.098-0.038,1.653-0.047l0.299-0.008L434.478,68.614z"/>
				<path style="clip-path:url(#SVGID_00000119837678525004502170000006826677428961934759_);fill:#95B374;" d="M741.574,150.508
					c-0.462-0.266-0.936-0.567-1.436-0.881c-1.169-0.739-2.383-1.506-3.718-1.99c-6.201-2.227-12.906-4.503-20.489-6.955
					c-2.067-0.67-4.197-1.183-6.253-1.681c-0.931-0.223-1.852-0.445-2.76-0.684l-0.387-0.097l0.052,2.409
					c-0.044-0.007-0.093-0.015-0.14-0.026c-0.355-0.064-0.713-0.138-1.063-0.239c-0.787-0.222-1.603-0.523-2.38-0.815
					c-1.764-0.65-3.578-1.323-5.386-1.246c-3.477,0.148-6.091-0.561-8.479-2.299c-0.777-0.565-1.498-0.893-2.143-0.968
					c-1.996-0.24-4.029-0.444-5.989-0.639c-1.696-0.17-3.39-0.34-5.076-0.532c-0.229-0.026-0.457-0.183-0.706-0.355
					c-0.198-0.129-0.401-0.267-0.616-0.354c-0.609-0.254-1.223-0.513-1.834-0.769c-2.033-0.854-4.139-1.735-6.237-2.492
					c-1.507-0.539-3.079-0.778-4.426-0.941c-0.616-0.083-1.7,0.117-2.07,0.762c-1.431,2.457-1.527,2.512-3.674,1.889
					c-0.269-0.081-0.563-0.182-0.857-0.281c-1.151-0.4-2.349-0.812-3.185-0.29c-2.957,1.851-4.871-0.188-6.559-1.992
					c-2.685-2.862-5.806-3.875-10.125-3.285c-1.441,0.197-2.927,0.072-4.185-0.359c-0.266-0.086-0.526-0.182-0.783-0.275
					c-1.683-0.607-3.434-1.242-5.376-0.339c-0.185,0.088-0.571,0.013-0.793-0.151c-2.706-2.003-5.595-1.623-8.301-0.914
					c-0.315,0.082-0.692-0.044-1.091-0.175c-0.129-0.041-0.259-0.085-0.384-0.12l-0.006-0.191l5.207-3.043l-0.396-0.333
					c-0.287-0.243-0.56-0.516-0.813-0.782c-0.565-0.568-1.093-1.104-1.727-1.229c-2.809-0.551-5.591-0.964-8.54-1.399
					c-0.928-0.141-1.875-0.278-2.82-0.425l0.591-2.235l-4.265,1.741c-0.399,0.165-0.802,0.369-1.187,0.565
					c-0.84,0.427-1.629,0.834-2.412,0.858c-2.464,0.079-4.906-0.019-7.494-0.122c-1.028-0.039-2.07-0.082-3.132-0.112l-0.442-0.013
					l0.149,0.484c0.351,1.2,0.374,2.065,0.076,2.51c-0.207,0.308-0.608,0.438-1.19,0.392c-1.067-0.088-2.134-0.196-3.199-0.299
					l-1.616-0.154l-0.437,1.17l2.949,2.82l-0.004,0.013l-5.484-2.106l0.196,0.883l-2.063,0.822l1.342,0.711
					c0.44,0.237,0.836,0.45,1.227,0.652c0.265,0.134,0.519,0.263,0.778,0.39c-0.37-0.115-0.761-0.208-1.14-0.296
					c-1.796-0.412-3.352-0.773-3.33-3.8l0.009-0.881l-3.078,3.826l0.296,0.223c0.511,0.373,0.999,0.802,1.476,1.221
					c1.113,0.976,2.167,1.895,3.404,2.21c2.128,0.548,3.575,1.062,4.175,2.878c-0.026-0.041-0.046-0.076-0.071-0.114
					c-0.347-0.543-0.715-1.109-1.202-1.47c-0.612-0.451-1.385-0.571-2.132-0.692c-0.31-0.048-0.623-0.095-0.921-0.169l-0.661-0.162
					l0.719,1.499c-0.102,0.364-0.189,0.752-0.266,1.127c-0.203,0.921-0.388,1.791-0.836,2.301c-0.729,0.84-1.519,1.01-2.045,1.006
					c-0.66-0.005-1.308-0.284-1.808-0.759c0.142-0.104,0.288-0.201,0.438-0.299c0.655-0.442,1.335-0.901,1.736-1.609
					c0.418-0.731-0.094-2.169-0.436-2.957c-0.327-0.753-0.716-1.489-1.096-2.195c-0.649-1.214-1.258-2.363-1.589-3.634
					c-0.353-1.371-0.783-2.092-2.117-2.149c-0.801-0.043-1.609-0.126-2.551-0.221c-0.454-0.049-0.943-0.098-1.486-0.15l-0.345-0.034
					l0.129,6.088l4.062,2.43c-1.502,1.27-2.494,0.527-3.634-0.329c-0.593-0.442-1.22-0.907-1.909-1.014
					c-1.535-0.238-3.043-0.839-4.38-1.374c-0.556-0.217-1.086-0.433-1.59-0.607l-0.229-0.077l-0.121,0.243
					c-0.178,0.344-0.357,0.718-0.521,1.051c-0.148,0.302-0.313,0.63-0.418,0.833c-1.219-0.536-2.493-0.266-3.729-0.007
					c-1.627,0.34-3.163,0.658-4.509-0.767c-0.443-0.479-1.49-0.164-1.795-0.055c-0.784,0.274-1.564,0.58-2.321,0.876
					c-1.322,0.516-2.682,1.05-4.04,1.407c-0.624,0.166-1.793-0.277-2.017-0.769l-0.225-0.498c-0.73-1.629-0.896-1.731-2.533-1.531
					l-0.39,0.048l1.436,4.905c-1.901-0.954-3.226-1.119-4.138-0.523c-0.713,0.468-1.16,1.389-1.358,2.813l-4.198-1.644l-0.318,0.912
					l1.521,1.434c-0.818,0.214-1.838,0.104-2.695-0.309c-0.794-0.38-1.34-0.961-1.56-1.639c-0.541-1.692-1.537-2.667-2.499-3.609
					c-0.162-0.162-0.337-0.331-0.503-0.503c-0.057-0.056-0.104-0.16-0.172-0.323c0.307,0.163,0.602,0.325,0.886,0.477
					c1.107,0.602,2.063,1.125,3.068,1.565c0.19,0.083,0.376,0.168,0.567,0.254c1.513,0.692,3.221,1.48,5.021,0.065
					c0.339-0.263,0.637-0.58,0.927-0.892c0.13-0.136,0.249-0.273,0.382-0.405l0.231-0.239l-0.194-0.259
					c-0.108-0.144-0.213-0.312-0.313-0.473c-0.254-0.401-0.507-0.816-0.896-1.029c-0.409-0.226-0.822-0.464-1.234-0.694
					c-1.813-1.029-3.681-2.093-5.645-2.791c-0.506-0.18-1.037-0.235-1.55-0.285c-1.04-0.099-2.027-0.193-2.77-1.384
					c-0.375-0.604-0.804-0.941-1.277-0.999c-0.771-0.084-1.497,0.547-2.141,1.176l-0.496-1.574l-3.586-0.34
					c-0.206-0.088-0.308,0.106-0.525,0.529l-0.033,0.068l-0.576-0.983l-1.161,1.368l0.153-0.93l-0.165-0.128
					c-0.729-0.573-1.311,0.242-1.701,0.785c-0.243,0.344-0.523,0.739-0.734,0.723c-0.095,0.006-0.328-0.11-0.667-0.744l-0.157-0.301
					l-2.411,1.846l-1.42-0.941l-14.868,11.722l0.667-0.05c-2.749,0.232-5.581,0.89-8.32,3.034l-0.51,0.401l1.846,0.723l-2.206,0.479
					l0.36,1.416l2.302-0.688l-3.588,1.917l1.111,0.119c0.652,0.069,0.964,0.656,1.327,1.333c0.489,0.916,1.108,2.059,2.759,1.38
					c0.455-0.185,0.961-0.306,1.451-0.422c1.325-0.318,2.814-0.665,3.41-2.549l0.842,1.092c-0.158,0.22-0.317,0.467-0.241,0.746
					c0.653,2.365,1.367,4.881,2.161,7.37c0.127,0.386,0.627,0.691,0.917,0.794c0.227,0.08,0.4,0.071,0.532-0.03l0.607-0.466
					c1.122-0.866,2.283-1.756,3.224-2.897c0.819-0.984,1.465-2.133,2.093-3.249c0.264-0.464,0.528-0.925,0.793-1.362l0.224-0.366
					l-1.503-0.67l2.809,0.419l-0.108-0.504c-0.113-0.526-0.305-0.754-0.44-0.904c-0.031-0.037-0.06-0.066-0.082-0.105
					c-0.2-0.318-0.434-0.628-0.664-0.943c-0.557-0.749-1.135-1.527-1.209-2.301c0.033-0.233,0.77-0.783,1.223-1.108
					c0.411-0.309,0.842-0.628,1.166-0.95c2.031-2.017,4.414-4.41,6.729-6.879c0.116-0.121,0.17-0.28,0.195-0.462l1.791,3.278
					c-0.41,0.375-0.797,0.74-1.17,1.09c-0.945,0.886-1.765,1.657-2.64,2.371c-0.793,0.652-1.267,1.631-1.294,2.684
					c-0.025,1.017,0.368,1.943,1.094,2.563c1.511,1.296,3.188,2.498,5.578,1.667c0.757-0.263,1.583-0.227,2.467-0.189
					c0.356,0.014,0.718,0.031,1.065,0.024l0.715,0.905c-0.054,0.346-0.103,0.672-0.146,0.977c-0.106,0.78-0.212,1.452-0.374,2.08
					c-0.04,0.149-0.132,0.299-0.253,0.451l-0.077-2.898l-6.521-0.622l-0.528,1.296l2.345,2.373l-1.605,2.115l-1.705-2.179
					l-0.206,0.101c-1.038,0.524-1.602,1.046-1.837,1.698c-0.186,0.511-0.159,1.098,0.079,1.835
					c-0.375,0.528-0.762,1.232-0.552,1.799c0.163,0.424,0.591,0.632,1.31,0.646c1.369,0.016,1.799,0.755,1.944,1.965
					c-0.264-0.041-0.528-0.083-0.797-0.131c-0.876-0.145-1.783-0.296-2.675-0.193c-1.035,0.118-2.04-0.116-3.103-0.357
					c-1.554-0.359-3.159-0.727-4.849,0.091c-0.597,0.287-1.236,0.496-1.861,0.697c-0.221,0.07-0.438,0.141-0.651,0.215
					c-0.278-0.501-0.57-0.876-0.895-1.158c-1.219-1.468-2.995-2.371-5.02-2.818c-1.155-0.254-2.448-0.432-3.452,0.293
					c-0.386,0.277-0.642,0.744-0.907,1.117c-0.725,1.003-1.768,0.908-2.862,0.838c-2.847-0.172-5.519,3.143-6.932,5.297
					c-0.882,1.351-2.071,1.701-3.429,0.773c-0.499-0.341-1.058-0.669-1.675-0.714c-1.463-0.096-3.086,0.059-4.284,0.965
					c-0.232,0.179-0.261,0.472-0.063,0.686c1.192,1.256-1.142,0.733-1.487,0.646c-0.708-0.175-1.427-0.296-2.16-0.361
					c-0.91-0.08-1.657,0.128-2.331,0.736c-1.448,1.308,0.206,4.974,1.252,6.038c1.32,1.335,2.885,1.788,3.111,3.892
					c0.211,1.91-0.735,2.337-2.336,1.75c-2.021-0.743-3.565-1.946-5.812-1.787c-2.004,0.145-5.369,1.46-5.585,3.804
					c-0.071,0.809,0.645,1.494,1.108,2.059c1.236,1.536,0.108,3.786,0.307,5.616c0.208,1.979-1,3.649-1.875,5.309
					c-0.518,0.978-0.661,1.976-0.012,2.904c1.377,1.961,3.283,0.125,4.669-0.813c0.203,0.683,0.444,1.5,1.076,1.772
					c1.347,0.59,3.205,0.692,4.662,0.723c1.631,0.043,3.167-0.489,4.616-1.224c1.489-0.758,3.375-1.634,4.557-2.848
					c1.387-1.426,1.474-3.61,3.129-4.803c1.189-0.858,2.629-1.025,3.536-2.309c1.089-1.54-1.609-1.979-2.247-3.02
					c0.011-0.02,0.036-0.034,0.047-0.059c1.197-2.095,2.448-1.711,4.216-0.899c0.956,0.443,2.193,0.251,3.033-0.07
					c0.409-0.161,0.439-0.865,0.489-1.839c0.005-0.147,0.008-0.293,0.023-0.438c0.112,0.058,0.238,0.123,0.354,0.183
					c0.584,0.311,1.2,0.628,1.783,0.483c0.254-0.06,0.472-0.084,0.672-0.077c0.615,1.957,0.734,3.972,1.088,6.044
					c0.285,1.696,1.336,2.719,2.869,3.354c2.526,1.041,4.49,2.486,4.846,5.448c0.15,1.22,0.066,2.46,0.154,3.683
					c0.134,1.938,1.193,2.631,2.631,1.133c0.899-0.931,1.241-1.971,1.523-3.208c0.31-1.374,0.51-4.721,2.549-4.394
					c0.22,0.033,0.415-0.093,0.465-0.31c0.554-2.498-1.956-4.929-3.492-6.564c-0.95-0.996-1.97-1.912-2.926-2.892
					c-1.221-1.236-2.691-2.088-3.224-3.588l1.651-0.332l0.499,0.422l-0.862,0.874l0.381,0.235c0.286,0.182,0.632,0.341,0.96,0.492
					c0.54,0.253,1.204,0.561,1.268,0.87c0.419,1.978,1.66,2.314,2.756,2.607c0.171,0.046,0.346,0.099,0.489,0.137l3.059,1.331
					l0.493,0.689l0.023,0.034c-0.028,0.255-0.062,0.515-0.091,0.779c-0.288,2.341-0.591,4.765,1.263,6.657l2.133,3.16l-1.334,0.244
					l3.748,4.742l0.409-4.302l1.265,0.702l0.748-1.193l-2.036-1.86l-0.471-3.496l0.096-0.045l2.343,2.705l-0.244-3.338l4.097,0.789
					l-0.004,0.337l-0.057,0.181c-0.328,0.999-0.732,2.237,0.575,3.17c0.058,0.111,0.04,0.615,0.026,1.018
					c-0.014,0.396-0.029,0.848-0.013,1.355l0.004,0.104l0.059,0.082c0.185,0.289,0.369,0.66,0.571,1.052
					c0.698,1.365,1.569,3.07,3.424,3.672c0.245,0.074,1.438,0.428,1.84-0.124c0.903-1.24,1.576-0.81,2.52-0.219
					c0.196,0.122,0.398,0.253,0.6,0.36c0.148,0.075,0.288,0.156,0.428,0.237c0.758,0.42,1.526,0.856,2.312,0.784
					c0.993-0.091,1.945-0.435,2.954-0.794c0.297-0.104,0.598-0.214,0.902-0.315l0.068,4.957c0.002,0.21,0.014,0.421,0.017,0.63
					c0.017,0.442,0.031,0.854,0.003,1.267c-0.056,0.752-0.151,1.523-0.241,2.265c-0.037,0.313-0.075,0.618-0.114,0.926l-0.751,2.255
					c0.031-0.762,0.053-1.527,0.085-2.29l0.031-0.689l-0.773-0.299l-2.001,4.088c-0.472-0.118-0.952-0.275-1.423-0.434
					c-1.252-0.415-2.543-0.837-3.745-0.553c-2.533,0.598-4.746-0.051-7.08-0.744l-0.308-0.088c-0.804-0.239-1.671-0.219-2.504-0.202
					c-0.309,0.006-0.613,0.008-0.925,0.001c-0.936-2.558-3.061-3.39-4.942-4.129l-0.389-0.152c-0.909-0.362-1.565-0.372-2.065-0.028
					c-0.688,0.468-0.978,1.5-1.228,3.002c-0.163,1.008-1.623,2.544-1.945,2.516l-0.495-0.15c-1.92-0.573-4.321-1.295-5.059-2.825
					c-1.296-2.648-3.185-3.404-5.013-4.134c-0.45-0.181-0.914-0.363-1.361-0.579l-0.193-0.091l-1.061,1.329l-1.221-4.479
					l1.307-1.707l-1.335-2.061l1.656-1.74l-0.304-0.251c-1.463-1.204-3.332-2.275-5.061-0.098c-0.137-0.203-0.285-0.392-0.522-0.41
					c-0.676-0.038-1.366-0.021-2.037-0.005c-1.262,0.023-2.564,0.056-3.746-0.267c-3.736-0.997-7.271-0.112-11.354,2.864
					c-0.248-0.124-0.486-0.233-0.669-0.309c-0.984-0.427-2.033-0.709-3.046-1.079c-1.264-0.469-1.651-1.035-2.716-0.752
					l-0.011-0.016l-0.025,0.022c-0.174,0.051-0.361,0.114-0.581,0.212c-1.318,0.594-2.321,1.844-3.602,2.552
					c-1.267,0.706-2.647,1.296-3.762,2.248c-2.011,1.718-2.318,3.599-2.355,5.83c-0.523,1.709-1.661,2.516-3.361,3.174
					c-1.443,0.561-2.477,1.097-3.728,2.029c-1.097,0.819-2.396,1.025-3.381,1.996c-0.905,0.878-0.642,2.494-0.778,3.587
					c-0.218,1.743-2.222,3.133-3.355,4.315c-1.124,1.183-2.087,2.662-2.852,4.091c-1.372,2.588-0.486,4.929,0.472,7.476
					c0.678,1.826,0.689,3.404-0.334,5.099c-0.681,1.123-1.924,2.425-1.836,3.86c0.069,1.073,0.49,1.679,1.284,2.379
					c1.626,1.43-0.915,2.585-1.259,3.903c-0.616,2.365,1.401,3.738,3.294,4.646c1.118,0.533,2.12,0.999,3.058,1.658l1.001,2.067
					c-0.691,2.852,0.754,4.471,2.296,5.683c1.395,2.801,3.198,5.774,6.901,5.988c0.204,0.018,0.416,0.061,0.618,0.089
					c0.473,0.077,0.962,0.155,1.45,0.083c1.6-0.23,3.176-0.503,4.849-0.796c0.575-0.103,1.164-0.208,1.768-0.309
					c0.032,0.022,0.072,0.032,0.098,0.034c0.066,0.015,0.145,0.015,0.213-0.036l0.715,1.426l0.215-0.055
					c0.436-0.113,0.87-0.221,1.31-0.317c1.071-0.248,2.165-0.498,3.194-0.953c0.527-0.23,0.87-0.854,1.208-1.457
					c0.072-0.128,0.14-0.251,0.211-0.37l1.129,1.428l0.223-0.321c0.059-0.08,0.114-0.151,0.168-0.229
					c0.147-0.189,0.299-0.386,0.406-0.631c0.063-0.153,0.107-0.313,0.147-0.462c0.374,0.382,0.779,0.645,1.166,0.49
					c0.419-0.165,0.678-0.736,0.824-1.861c0.064-0.482,0.179-0.959,0.315-1.441l-0.247,2.637l0.698,0.291
					c2.257,0.937,4.385,1.823,4.262,5.262l-0.013,0.354l4.714,0.06c1.731,1.708,2.621,3.65,2.723,5.928
					c-0.655,0.475-1.016,0.983-1.107,1.555c-0.083,0.513,0.076,1.06,0.462,1.619c-0.394,1.521-0.904,2.672-2.054,3.332l-0.138,0.103
					l-0.036,0.152c-0.055,0.224,0.025,0.727,0.16,0.95c0.954,1.664,1.923,3.314,2.886,4.972l0.924,1.574
					c0.121,0.31,0.207,0.656,0.306,1.024c0.277,1.07,0.585,2.273,1.832,2.58c-0.038,0.045-0.068,0.089-0.101,0.14
					c-0.348,0.482-0.744,1.023-0.584,1.589c0.088,0.329,0.338,0.573,0.767,0.775c-0.335,0.339-0.526,0.692-0.6,1.08
					c-0.093,0.499,0.041,1.02,0.396,1.591c0.891,1.403,0.984,2.464,0.33,3.639c-0.3,0.537-0.239,1.48-0.009,2.086
					c1.271,3.281-0.098,5.718-1.678,8.533l-0.185,0.324c-0.931,1.666-1.539,3.522-2.19,5.486c-0.286,0.868-0.587,1.777-0.923,2.678
					l-0.152,0.418l1.73,0.26c-0.41,0.323-0.684,0.713-0.823,1.153c-0.241,0.747-0.089,1.65,0.467,2.754
					c0.578,1.151,1.004,2.441,1.417,3.691l0.072,0.208c1.669,5.037,1.685,10.479,1.696,15.736c0.005,1.488,0.237,3.239,1.891,3.873
					c-0.167,0.265-0.309,0.531-0.207,0.796c0.263,0.755,0.566,1.496,0.857,2.223c0.463,1.151,0.943,2.349,1.3,3.562
					c0.341,1.149,0.434,2.483,0.257,3.563c-0.233,1.396,0.066,2.726,0.807,3.645c0.547,0.666,1.268,1.06,2.089,1.135
					c0.277,0.025,0.576,0.01,0.875-0.033c0.402-0.064,0.815-0.143,1.215-0.214c2.089-0.39,4.06-0.767,5.97,0.461
					c0.322,0.206,0.92,0.262,1.286,0.012c0.773-0.531,1.557-1.038,2.339-1.545c2.08-1.338,4.225-2.735,6.114-4.448
					c1.791-1.621,3.359-3.529,5.017-5.554c0.734-0.895,1.5-1.828,2.297-2.757l0.261-0.299l-2.397-1.867
					c0.047-0.011,0.094-0.024,0.134-0.032c0.743-0.176,1.444-0.338,1.617-0.889c0.592-1.844,1.77-2.483,3.26-3.128
					c3.327-1.449,4.173-3.547,3.002-7.484c-0.644-2.159-0.455-2.615-0.382-2.704c1.942-2.38,4.121-4.706,6.477-6.911
					c0.703-0.671,1.528-1.228,2.323-1.763c1.051-0.709,2.127-1.443,2.988-2.441c1.757-2.031,1.536-4.43,1.321-6.758
					c-0.122-1.339-0.249-2.734,0.028-4l0.021-0.106l-0.028-0.105c-0.144-0.428-0.328-0.856-0.496-1.266
					c-0.379-0.909-0.736-1.77-0.755-2.625c-0.049-2.557,0.067-5.169,0.183-7.695c0.045-0.982,0.092-1.963,0.125-2.939
					c0.259-0.348,0.518-0.701,0.769-1.05c0.596-0.818,1.206-1.652,1.834-2.449c0.727-0.945,1.495-1.876,2.238-2.776
					c0.305-0.365,0.609-0.729,0.903-1.101c0.098-0.047,0.206-0.1,0.306-0.147c0.291-0.136,0.589-0.274,0.835-0.529
					c0.722-0.73,1.433-1.49,2.148-2.239c1.086-1.145,2.212-2.34,3.361-3.438c0.646-0.622,1.379-1.191,2.092-1.736
					c1.222-0.945,2.487-1.926,3.389-3.242c2.528-3.684,4.71-7.774,6.9-11.99c0.619-1.193,0.98-2.529,1.357-3.953
					c0.17-0.645,0.351-1.311,0.557-1.98l0.178-0.578l-0.514,0.121c-0.831,0.2-1.598,0.397-2.329,0.586
					c-1.538,0.394-2.864,0.736-4.212,0.925c-0.607,0.085-1.235,0.233-1.842,0.367c-2.531,0.573-4.916,1.127-6.616-2.146
					c-0.178-0.342-0.604-0.291-1.091-0.24c-0.063,0.01-0.129,0.016-0.196,0.025l-0.132-1.182l0.956-0.912l-0.114-0.248
					c-0.214-0.457-0.399-0.939-0.59-1.416c-0.43-1.07-0.866-2.182-1.523-3.087c-0.457-0.624-0.976-1.191-1.477-1.749
					c-1.445-1.567-2.799-3.057-2.686-5.733c0.025-0.468-0.379-0.803-0.81-1.153c-0.134-0.113-0.269-0.216-0.377-0.331l-0.742-2.185
					c-0.14-0.429-0.321-0.851-0.488-1.257c-0.371-0.897-0.726-1.742-0.767-2.606l-0.018-0.338c-0.183-3.508-0.295-4.082-2.704-4.365
					l1.557-0.679l-6.067-17.098l3.033,4.834l0.564-3.106l0.092,0.208c0.268,0.594,0.532,1.197,0.788,1.812
					c0.606,1.382,1.225,2.811,1.9,4.199c0.501,1.027,1.108,2.033,1.707,3.004c1.248,2.04,2.417,3.964,2.681,6.085
					c0.385,3.112,1.692,5.539,2.948,7.888c0.792,1.47,1.604,2.984,2.163,4.627c0.207,0.627,0.8,1.004,1.375,1.368
					c0.162,0.103,0.325,0.209,0.479,0.321c-1.098,3.175-0.433,6.166,0.373,8.688c0.392,1.225,0.813,2.119,2.427,1.567
					c1.044-0.357,2.13-0.683,3.174-0.999c4.466-1.344,9.079-2.736,12.549-7.136c1.671,0.382,2.991-0.52,4.268-1.388
					c0.607-0.411,1.183-0.801,1.789-1.062c0.774-0.329,1.328-1.238,1.863-2.12c0.191-0.318,0.384-0.637,0.586-0.92
					c0.208-0.299,0.388-0.624,0.564-0.947c0.267-0.496,0.523-0.964,0.866-1.269c1.508-1.326,2.289-2.652,2.333-3.936
					c0.04-1.037-0.407-2.019-1.325-2.917c-0.95-0.926-2.027-1.701-3.072-2.447c-0.421-0.307-0.84-0.604-1.255-0.917l0.153-2.059
					l-0.419,0.138c-0.165,0.058-0.346,0.099-0.532,0.138c-0.456,0.097-0.931,0.198-1.251,0.568
					c-1.743,1.989-3.477,2.533-5.437,1.726c-0.218-0.089-0.342,0.058-0.485,0.349l-0.673-1.194
					c-0.789-1.404-1.584-2.805-2.361-4.223c-0.152-0.29-0.278-0.612-0.405-0.949c-0.18-0.451-0.359-0.921-0.631-1.324
					c-1.006-1.48-2.067-2.949-3.099-4.369c-0.337-0.469-0.669-0.933-1.019-1.401l0.129-0.128c0.285-0.294,0.575-0.584,0.85-0.882
					c0.2-0.22,0.397-0.456,0.591-0.691l0.17-0.208c0.253,0.015,0.51,0.027,0.759,0.03c0.664,0.021,1.291,0.038,1.887,0.212
					c1.392,0.422,1.789,1.784,2.196,3.221c0.088,0.311,0.173,0.617,0.273,0.915c0.838,2.546,5.308,5.75,7.505,4.824
					c1.937-0.818,2.883,0.098,3.93,2.082c0.874,1.653,5.074,3.598,6.776,2.792c0.396-0.186,0.666-0.614,0.927-1.028
					c0.041-0.06,0.076-0.123,0.118-0.18c1.674,1.86,3.778,2.48,5.805,1.701c1.573-0.604,2.558-0.068,3.724,1.067
					c0.369,0.361,0.635,0.871,0.923,1.415c0.285,0.538,0.581,1.097,0.996,1.528c0.814,0.84,1.741,1.554,2.633,2.232
					c0.238,0.187,0.483,0.37,0.72,0.562l-1.379,0.824l0.051,0.265c0.491,2.436,1.654,3.684,3.282,3.512
					c0.823-0.084,1.592-0.713,2.332-1.325c0.219-0.178,0.448-0.36,0.664-0.531c0.024,0.064,0.055,0.137,0.079,0.205
					c0.238,0.579,0.55,1.369,0.396,1.919c-1.051,3.794-0.074,7.171,0.872,10.437l0.277,0.959c0.766,2.714,1.495,5.487,2.2,8.182
					c0.658,2.512,1.342,5.106,2.061,7.652c0.264,0.937,0.688,1.805,1.151,2.732c0.223,0.451,0.456,0.919,0.684,1.428l0.202,0.452
					l4.65-6.17c0.348-0.352,0.328-0.97,0.303-1.682c-0.021-0.565-0.046-1.21,0.12-1.745c0.756-2.451,1.285-4.521,0.615-6.881
					c-0.039-0.142,0.18-0.693,0.435-0.945l0.559-0.545c1.874-1.838,3.811-3.744,5.817-5.48c1.16-1.014,2.413-1.95,3.621-2.852
					c0.673-0.502,1.342-1.007,2.005-1.521c0.242-0.192,0.475-0.628,0.439-0.981c-0.072-0.826,0.019-1.42,0.287-1.805
					c0.4-0.575,1.18-0.688,2.005-0.806c0.269-0.038,0.541-0.077,0.803-0.135c0.28-0.058,0.579-0.087,0.888-0.126
					c0.853-0.094,1.736-0.195,2.24-0.803c0.49-0.591,0.904-0.873,1.137-0.847c0.31,0.037,0.578,0.593,0.883,1.24l0.123,0.268
					c0.566,1.167,1.188,2.331,1.78,3.454c0.781,1.466,1.59,2.99,2.288,4.542c0.636,1.411,1.113,2.959,1.574,4.47
					c0.176,0.577,0.35,1.156,0.541,1.73c0.138,0.438,0.248,0.9,0.32,1.246c0.025,0.121,0.052,0.226,0.072,0.313l0.081,0.339
					l3.914-1.509c0.173,1.316,0.604,2.702,1.048,4.158c0.915,2.95,1.941,6.287,1.121,10.055l-0.019,0.126l0.041,0.11
					c0.024,0.067,0.064,0.102,0.107,0.14c-0.119,0.422-0.274,0.862-0.427,1.294c-0.451,1.299-0.911,2.649-0.554,3.659
					c0.549,1.557,1.617,2.843,2.644,4.082c0.394,0.473,0.799,0.964,1.168,1.454c-0.409,3.467,0.644,7.658,2.529,10.022
					c0.976,1.228,2.124,1.924,3.348,2.039c0.239,0.026,0.471,0.025,0.703,0.006l0.403-0.036l-0.126-0.437
					c-0.155-0.524-0.372-1.058-0.587-1.585c-0.417-1.052-0.862-2.141-0.66-2.922c0.737-2.896-0.187-4.553-1.93-6.281
					c-0.351-1.008-1.085-1.591-1.796-2.15c-0.887-0.696-1.716-1.358-1.825-2.807c-0.077-1.038-0.394-2.047-0.698-3.02
					c-0.325-1.042-0.631-2.025-0.666-3.039c-0.049-1.332,0.41-2.772,0.851-4.159c0.127-0.394,0.248-0.785,0.36-1.179
					c0.111-0.355,0.323-0.693,0.565-1.036l0.007,0.226l4.492,3.056l1.978,4.539l2.148-0.646l-0.442,4.668l0.515-0.361
					c0.688-0.486,1.363-0.949,2.02-1.409c1.68-1.159,3.271-2.249,4.785-3.495c0.729-0.594,1.346-1.999,1.314-3
					c-0.163-5.193-1.375-8.953-3.829-11.858c-2.27-2.688-3.106-4.305-2.982-5.749c0.117-1.306,1.085-2.634,3.227-4.415
					c1.174-0.437,2.105-0.419,2.844,0.063c0.877,0.568,1.482,1.764,1.851,3.671l0.093,0.479l-2.72,1.351l1.28,3.606l2.625-3.973
					l-0.531-1.313l-0.211,0.105l0.05-0.279c0.543-3.028,2.137-3.745,4.705-3.973c2.661-0.228,5.745-0.817,8.391-3.422
					c2.049-2.017,2.914-4.633,3.749-7.167c0.316-0.955,0.641-1.945,1.027-2.878c0.557-1.347,1.019-2.638,0.598-3.692
					c-0.274-0.692-0.889-1.176-1.886-1.476c-0.004-0.024-0.004-0.043-0.012-0.069c0.651-0.42,0.994-0.854,1.057-1.364
					c0.105-0.771-0.465-1.487-1.097-2.151c-0.649-0.678-1.168-1.563-1.671-2.423c-0.214-0.363-0.425-0.724-0.648-1.074
					c-0.181-0.284-0.37-0.566-0.549-0.841c-0.525-0.808-1.075-1.637-1.493-2.517c-0.317-0.649-0.453-1.616-0.321-1.813
					c0.777-1.095,1.658-2.066,2.596-3.091c0.345-0.379,0.69-0.761,1.028-1.151l0.349-0.394l-0.442-0.183
					c-0.255-0.106-0.516-0.257-0.794-0.415c-1.083-0.626-2.411-1.395-3.862,0.421l-4.443-4.125c0.344-0.249,0.661-0.483,0.956-0.7
					c0.827-0.6,1.479-1.074,2.127-1.589c0.624-0.49,1.239-1.017,1.83-1.532c0.175-0.15,0.348-0.294,0.51-0.442
					c0.089,0.193,0.188,0.387,0.276,0.58c0.341,0.706,0.683,1.44,0.975,2.179c0.199,0.517,0.321,1.098,0.393,1.48
					c0.028,0.137,0.055,0.252,0.072,0.333l0.098,0.383l4.037-2.147c0.242,0.461,0.649,0.789,1.048,1.105
					c0.819,0.655,1.411,1.121,0.702,2.528l-0.074,0.164l0.051,0.152c0.072,0.262,0.609,0.79,0.929,0.926
					c0.544,0.227,1.112,0.401,1.657,0.569c0.174,0.052,0.353,0.109,0.523,0.163c0.168,0.458,0.346,0.911,0.518,1.366
					c0.419,1.087,0.85,2.208,1.196,3.338c0.554,1.771,0.968,2.719,1.673,2.99c0.722,0.286,1.611-0.207,3.006-1.202
					c0.47-0.336,1.066-1.419,0.867-1.979c-0.872-2.491-2.143-5.155-4.933-6.064l-1.844-2.941c0.14-0.078,0.273-0.149,0.407-0.221
					c0.514-0.276,0.988-0.543,1.409-0.906c0.402-0.352,1.102-1.444,1.119-1.745l0.009-0.174l-0.105-0.109
					c-0.727-0.768-0.44-1.344-0.037-2.145c0.181-0.371,0.37-0.753,0.451-1.164c0.845-1.519,1.722-1.778,3.132-0.936
					c0.707,0.429,2.35-0.302,2.809-1.08c2.235-3.773,3.215-8.071,2.911-12.78c-0.085-1.232-0.308-2.26-0.664-3.053
					c-0.325-0.714-0.727-1.378-1.115-2.018c-0.425-0.701-0.865-1.422-1.179-2.18c-1.403-3.385-4.312-5.313-7.151-4.789l-0.464-1.896
					l-1.245,1.312l-0.884-2.038l-2.277-0.22c0.187-0.476,0.364-0.932,0.536-1.378c0.481-1.197,0.923-2.335,1.308-3.479
					c1.11-3.317,3.738-4.863,6.695-3.937c0.69,0.217,1.426,0.231,2.127,0.247c0.447,0.008,0.912,0.02,1.344,0.081
					c1.681,0.239,3.148,0.516,4.487,0.85c0.029,0.142,0.063,0.422,0.088,0.64c0.032,0.274,0.066,0.589,0.126,0.901l0.075,0.409
					l4.842-2.478l-1.075-0.574c0.054-0.313,0.107-0.629,0.151-0.951c0.138-0.96,0.271-1.868,0.677-2.542
					c0.207-0.34,1.451-0.456,2.259-0.21c0.544,0.171,1.049,0.512,1.587,0.876c0.472,0.317,0.957,0.646,1.494,0.857
					c0.556,0.224,1.496-0.247,1.901-0.785c0.397-0.519,0.647-1.16,0.891-1.783c0.063-0.174,0.128-0.346,0.198-0.513l0.613,0.108
					c0.133,0.421,0.295,0.845,0.455,1.254c0.406,1.058,0.794,2.058,0.715,3c-0.117,1.426-0.715,3.064-1.824,5.006
					c-1.051,1.823-1.045,3.437,0.028,5.079c1.139,1.746,2.347,3.468,3.515,5.136l0.586,0.844c0.258,0.367,0.514,0.739,0.767,1.115
					c0.825,1.21,1.677,2.459,2.647,3.551c0.416,0.47,1.043,0.615,1.655,0.759c0.25,0.057,0.501,0.114,0.732,0.195l0.427,0.153
					l-0.031-0.52c-0.051-0.86-0.136-1.634-0.214-2.381c-0.156-1.468-0.287-2.735-0.085-3.889c0.328-1.87,0.159-5.338-1.248-6.845
					c-1.068-1.139-2.126-2.344-3.146-3.501c-0.406-0.462-0.814-0.922-1.213-1.381l0.177-0.534c0.466-0.167,0.937-0.34,1.402-0.514
					c1.271-0.463,2.581-0.948,3.893-1.311c0.644-0.181,1.522-0.181,1.958,0.179c0.676,0.553,1.288,0.763,1.882,0.635
					c0.609-0.13,1.155-0.624,1.69-1.505c1.042-1.718,2.446-2.402,4.406-2.138c0.367,0.05,0.734,0.049,1.165,0.049
					c0.216-0.001,0.464-0.003,0.733,0.004l1.06,0.022l-6.685-5.085l0.56-0.395l0.509-2.501c0.614,0.968,1.327,1.884,2.287,2.04
					c0.676,0.112,1.366-0.152,2.131-0.798c0.121,0.031,0.394,0.194,0.535,0.278c0.367,0.227,0.744,0.46,1.113,0.696
					c0.736,0.477,1.508,0.968,2.313,1.354c0.561,0.266,1.34,0.116,1.876-0.154c0.377-0.189,0.662-0.545,1.001-0.959
					c0.156-0.189,0.324-0.398,0.533-0.619l0.316-0.349L741.574,150.508z M524.549,214.675l0.213-1.222l0.646-1.333
					c-0.04,0.457-0.081,0.925-0.135,1.431l-0.026,0.349l1.148,0.108L524.549,214.675z"/>
				<path style="clip-path:url(#SVGID_00000119837678525004502170000006826677428961934759_);fill:#95B374;" d="M418.887,271.999
					c-1.664-0.885-3.369-1.874-4.292-3.387c-1.189-1.936-2.399-2.861-3.806-2.909c-0.827-0.026-1.67-0.38-2.484-0.731
					c-0.195-0.074-0.388-0.161-0.582-0.238c-0.114-0.815-0.436-1.615-1.044-2.366c-1.156-1.439-3.056-1.901-4.664-2.62
					c-1.919-0.854-2.026-3.023-3.924-3.828c-1.214-0.51-2.395-0.203-2.949-1.764c-0.339-0.969-0.056-2.203,0.037-3.192
					c0.18-1.833-0.145-3.307-1.032-4.925c-0.953-1.739-2.529-3.105-4.184-4.143c-0.826-0.512-1.735-0.841-2.665-1.102
					c-1.27-0.361-1.931-0.404-2.238-1.76c-0.373-1.631-1.641-2.632-3.013-3.431c-1.066-0.607-2.231-1.038-2.964-2.066
					c-0.521-0.733-0.642-1.737-0.814-2.589c-0.677-3.501-3.471-2.926-6.23-2.034c-1.968,0.643-3.62-1.891-5.602-2.175
					c-1.526-0.218-2.233-0.445-3.38-1.44c-0.77-0.664-2.7-1.178-2.956-2.209c-0.284-1.133-0.746-1.855-2.003-1.505
					c-0.536,0.151-1.006,0.757-1.342,1.162c-0.965,1.162-1.587,2.002-3.289,2.058c-4.59,0.149-4.567,4.906-7.441,7.243
					c-0.344-0.155-0.725-0.38-1.164-0.713c-1.025-0.774-2.522-1.383-3.562-1.004c-2,0.738-3.582,0.538-5.102-0.648
					c-0.136-0.537-0.297-1.084-0.458-1.613c-0.384-1.294-0.752-2.521-0.684-3.72c0.069-1.285,0.511-2.554,0.977-3.894
					c0.241-0.699,0.497-1.427,0.686-2.159c0.305-1.147,0.551-2.448,0.029-3.394c-0.338-0.612-0.964-0.986-1.858-1.097
					c-1.268-0.17-2.56-0.229-3.819-0.288c-0.541-0.022-1.097-0.05-1.65-0.083c-0.734-0.047-1.171-0.218-1.298-0.517
					c-0.131-0.302,0-0.86,0.399-1.616c1.198-2.301,2.37-4.679,3.5-6.971c0.478-0.973,0.957-1.939,1.435-2.904l0.151-0.298
					l-0.248-0.172c-1.409-0.99-2.795-1.296-3.999-0.881c-1.116,0.382-2.064,1.378-2.745,2.877c-0.615,1.371-2.096,2.572-3.947,3.21
					c-1.857,0.638-3.699,0.554-4.818-0.221c-2.278-1.59-3.987-8.102-2.899-11.068c0.525-1.416,1.105-2.828,1.659-4.183
					c0.254-0.616,0.504-1.221,0.741-1.827l0.096-0.231l-1.037-1.12c0.096-0.044,0.199-0.085,0.299-0.13
					c0.65-0.278,1.273-0.545,1.434-1.116c0.546-1.878,1.54-3.003,3.336-3.763c0.688-0.291,1.351-0.664,1.99-1.036
					c0.682-0.385,1.387-0.783,2.136-1.085c1.121-0.444,2.393-0.946,3.406-0.706c1.144,0.261,2.268,0.862,3.345,1.452
					c0.081,0.044,0.158,0.083,0.246,0.128c0.615,1.184,1.293,2.604,2.589,3.138c0.215,0.087,0.537,0.001,0.567-0.272
					c0.118-1.235,0.249-2.662-0.49-3.645c2.225-0.321,4.462,0.511,6.245,1.863c2.244,1.701,2.396,3.984,2.222,6.571
					c-0.173,2.539,0.515,6.867,3.962,6.919c4.436,0.069,2.442-10.018,3.55-12.56c2.07-4.688,7.722-5.602,11.341-8.463
					c1.642-1.291,2.066-3.271,2.56-5.183c0.892-3.376,3.242-1.773,5.318-3.208c0.602-0.412,1.01-1.131,1.328-1.765
					c0.761-1.48,1.195-2.483,2.871-3.188c1.958-0.824,4.063-0.995,5.272-2.922c0.645-1.041,0.415-2.291,1.206-3.327
					c0.607-0.795,2.056-1.165,2.933-1.624c1.247-0.648,2.264-1.756,2.25-3.227c-0.002-0.228-0.059-0.42-0.129-0.598
					c0.217-0.241,0.411-0.519,0.605-0.797c0.093-0.143,0.204-0.283,0.297-0.418c1.503,1.014,3.75,0.652,5.016-0.803
					c0.024,0.025,0.045,0.045,0.066,0.065c0.193,0.458,0.331,0.958-0.038,1.22c-0.173,0.122-0.374,0.22-0.582,0.302l-0.003,0.002
					c-0.648,0.242-1.424,0.333-2.026,0.453c-1.045,0.198-2.205,0.359-2.936,1.191c-0.833,0.946-1.373,3.874,0.42,4.241
					c1.074,0.217,1.848-0.25,2.695-0.888c1.529-1.153,2.65-1.872,4.578-2.185c2.222-0.368,5.296-0.521,6.427-2.866
					c0.582-1.202-1.201-1.894-2.005-2.155c-1.068-0.354-2.166-0.611-3.201-1.049c-0.309-0.128-1.39-1.382-1.335-1.394
					c0.608-0.101,1.312,0.07,1.918,0.128c1.273,0.128,2.66-0.042,2.212-1.637c-0.211-0.746-1.41-1.572-2.53-1.945
					c-1.316-1.115-2.624-1.02-3.856-0.699c-0.999,0.257-1.98,0.681-2.924,1.092c-0.645,0.281-1.309,0.567-1.973,0.798
					c-0.133,0.049-0.391-0.086-0.619-0.201c-0.042-0.021-0.09-0.044-0.132-0.064c0.019-0.048,0.027-0.094,0.046-0.142
					c0.057-0.181,0.169-0.517,0.236-0.568c0.708-0.322,1.421-0.674,2.135-1.025c3.137-1.542,6.369-3.135,9.842-2.221
					c5.054,1.335,9.586-0.722,13.363-2.912c0.782-0.458,1.718-2.373,1.443-3.296c-0.235-0.804-0.689-1.393-1.282-1.67
					c-0.633-0.288-1.37-0.206-2.151,0.24c-0.481,0.284-1.06,0.378-1.666,0.483c-0.191,0.025-0.374,0.06-0.554,0.091l-0.023-0.112
					l3.966-1.369l-0.464-0.418c-0.245-0.223-0.493-0.41-0.72-0.58c-0.41-0.319-0.763-0.592-0.927-0.933
					c-0.476-0.993-1.072-2.229-1.084-3.39c-0.022-1.479,0.155-3.012,0.342-4.636c0.089-0.739,0.18-1.508,0.254-2.32l0.06-0.623
					l-7.377,4.306c-0.153-0.21-0.316-0.411-0.474-0.607c-0.956-1.178-1.589-1.96-0.423-3.51c0.416-0.545-0.06-2.098-0.479-2.657
					c-0.662-0.886-1.612-1.547-2.358-2.019c-3.92-2.474-5.996-1.856-8.532,2.537c-0.061,0.105-0.124,0.219-0.185,0.333
					c-0.162,0.314-0.332,0.644-0.53,0.758c-1.729,1.019-3.223,2.36-2.438,5.236c0.023,0.178-0.312,0.82-0.635,1.068
					c-1.82,1.395-3.688,2.753-5.66,4.196l-2.168,1.584l-0.038,0.1c-0.088,0.232-0.176,0.532-0.278,0.88
					c-0.266,0.904-0.628,2.144-1.295,3c-0.7,0.891-2.155,1.539-3.231,1.447c-0.306-0.1-1.13-2.047-0.938-3
					c0.191-1.006,0.796-1.969,1.425-2.983c0.292-0.477,0.6-0.964,0.881-1.486l0.204-0.371l-0.353-0.14
					c-0.205-0.081-0.424-0.156-0.645-0.235c-0.478-0.17-0.98-0.341-1.425-0.6c-2.512-1.442-5.423-3.135-8.265-4.928
					c-0.383-0.242-0.678-0.843-0.941-1.381l-0.109-0.222c-0.277-0.555-0.513-1.16-0.795-1.85c-0.107-0.271-0.218-0.555-0.337-0.858
					c0.159-0.227,0.32-0.479,0.489-0.745c0.477-0.733,1.012-1.564,1.681-2.001c1.226-0.788,2.546-1.434,3.819-2.06
					c1.01-0.499,2.057-1.006,3.059-1.59c0.26-0.154,0.597-0.239,0.958-0.321c0.939-0.224,2.094-0.504,2.21-2.363
					c0.224-0.074,0.691-0.175,1.022-0.198c1.545-0.108,3.087-0.192,4.796-0.282l2.552-0.142l-1.806-3.012
					c1.055-0.646,1.463,0.056,1.888,0.789c0.143,0.234,0.268,0.457,0.421,0.607l0.113,0.112l0.143-0.039
					c0.747-0.205,1.455-0.452,2.145-0.69c1.42-0.495,2.758-0.963,4.01-0.872c3.409,0.249,5.212-2.021,7.12-4.423l0.532-0.66
					l-0.293-0.227c-2.094-1.623-3.819-1.521-5.589,0.318c-0.788,0.815-1.855,1.341-2.895,1.85c-0.251,0.125-0.508,0.248-0.752,0.38
					c-0.17,0.083-0.455,0.02-0.729-0.044c-0.065-0.011-0.124-0.021-0.181-0.037c0-0.057,0.005-0.116,0.008-0.171
					c0.024-0.359,0.042-0.702,0.131-1.004c0.094-0.329,0.264-0.647,0.424-0.954c0.071-0.146,0.148-0.283,0.207-0.419l0.114-0.236
					l-0.157-0.181c-0.071-0.077-0.123-0.151-0.176-0.215c-0.113-0.158-0.228-0.308-0.412-0.338c-1.146-0.181-1.762-0.335-1.94-0.687
					c-0.186-0.362-0.004-1.158,0.426-2.591c0.075-0.255,0.226-1.231-0.164-1.476c-0.382-0.239-0.965-0.392-1.414-0.212
					c-0.968,0.391-1.892,0.832-2.873,1.297c-0.358,0.176-0.715,0.349-1.084,0.516l-0.388,0.182l0.251,0.372
					c0.719,1.018,0.977,1.833,0.785,2.417c-0.183,0.578-0.826,1.003-1.916,1.265l-0.123,0.023c-0.823,0.2-1.764,0.419-2.476,0.997
					c-1.272,1.021-2.142,0.935-3.2-0.315c-0.496-0.582-1.375-0.731-2.08-0.852l-0.07-0.011c-0.493-0.088-1.004-0.106-1.5-0.128
					c-0.808-0.038-1.565-0.069-2.249-0.353c-1.843-0.78-3.839-1.367-5.862-0.424c-0.914,0.422-1.752,1.058-2.639,1.726
					c-0.302,0.23-0.609,0.462-0.932,0.697c-0.179-1.109-0.551-1.892-1.139-2.385c-0.747-0.632-1.795-0.771-3.299-0.43
					c-0.656,0.149-1.379-0.048-2.286-0.294c-0.297-0.076-0.608-0.164-0.945-0.246l1.567-1.666l-0.492-0.178
					c-0.646-0.232-1.299-0.446-1.938-0.656c-1.45-0.479-2.814-0.927-4.136-1.563c-1.142-0.547-2.348-0.599-3.519-0.655
					c-1.415-0.06-2.883-0.128-4.256-1.081c-1.127-0.781-2.808-0.366-4.44,0.032c-0.81,0.199-1.651,0.404-2.4,0.462l-0.276,0.021
					c-2.514,0.185-5.118,0.381-7.646,0.257c-1.042-0.052-2.105-0.415-3.134-0.761c-0.477-0.163-0.949-0.321-1.419-0.455
					c-0.253-0.147-0.505-0.313-0.75-0.474c-0.585-0.384-1.195-0.782-1.855-0.986c-0.854-0.265-1.736-0.459-2.588-0.644
					c-1.068-0.231-2.168-0.468-3.19-0.854c-4.489-1.677-9.454-2.088-15.161-1.248c-3.29,0.483-6.617,1.142-9.836,1.778l-0.861,0.168
					c-0.619,0.124-1.208,0.37-1.829,0.631c-0.283,0.123-0.58,0.244-0.895,0.361l-0.404,0.15l1.927,3.12
					c-0.437,0.11-0.858,0.242-1.272,0.366c-1.109,0.345-2.071,0.646-2.807,0.348c-2.501-1.012-4.515-0.132-6.642,0.796l-0.483,0.208
					l-0.084,1.423l6.702,0.634l0.034,0.546c-0.469,0.181-0.937,0.373-1.397,0.571c-1.19,0.496-2.419,1.011-3.647,1.304
					c-0.915,0.217-1.878,0.312-2.809,0.403c-1.251,0.127-2.547,0.25-3.772,0.68c-1.074,0.374-1.999,1.263-2.906,2.12
					c-0.391,0.368-0.794,0.749-1.19,1.078l-0.243,0.193l0.62,1.144l1.944,0.187l-2.557,1.791l0.084,1.158l4.765,0.452l-0.006,0.283
					c-4.413,2.964-9.364,4.716-15.13,5.354l0.036,0.695c6.647-0.573,13.105-2.742,19.357-4.837
					c3.564-1.195,7.224-2.424,10.913-3.354l-4.007,1.916l0.354,1.275l0.27-0.103c0.751-0.266,1.5-0.538,2.251-0.809
					c2.032-0.737,4.137-1.501,6.223-2.181c0.689-0.225,1.509-0.03,1.936,0.105c1.422,0.452,2.926,0.971,4.307,1.682
					c0.878,0.449,1.714,1.067,2.525,1.667c0.301,0.226,0.604,0.45,0.911,0.667c0.2,0.143,0.386,0.31,0.579,0.475
					c0.353,0.312,0.717,0.636,1.154,0.807c1.061,0.413,1.806,1.207,2.052,2.18c0.207,0.821,0.04,1.688-0.482,2.505
					c-0.479,0.742-0.663,1.366-0.561,1.902c0.106,0.606,0.545,0.999,1.064,1.34c-0.174,0.211-0.369,0.428-0.56,0.641
					c-0.814,0.915-1.458,1.643-1.276,2.252c0.446,1.492-0.088,2.62-0.602,3.71c-0.251,0.504-0.472,0.982-0.58,1.465l-0.037,0.169
					l0.094,0.134c0.294,0.412,0.55,0.79,0.795,1.143c0.495,0.713,0.925,1.331,1.375,1.918c1.062,1.376,2.108,2.548,3.935,2.866
					c-1.397-0.146-2.819-0.223-3.691,2.02c-0.137,0.352-0.584,0.641-1.016,0.914c-0.139,0.087-0.277,0.175-0.41,0.265l1.069-1.488
					l-0.192-0.221c-0.447-0.527-0.99-1.052-1.608-0.979c-0.491,0.063-0.941,0.467-1.453,1.318l-0.415,0.682
					c-2.804,4.641-5.704,9.444-8.899,13.821c-1.68,2.306-3.084,4.658-1.783,8.049c0.001,0.051-0.06,0.197-0.097,0.293
					c-0.084,0.217-0.185,0.46-0.175,0.72c0.04,0.688,0.011,1.506-0.017,2.29c-0.065,2.055-0.128,3.996,0.753,4.817
					c0.531,0.495,0.992,1.188,1.479,1.918c0.798,1.207,1.665,2.51,2.986,2.989l-0.949-0.09l-0.084,0.245
					c-1.181,3.33-1.135,3.487-0.023,7.517l0.124,0.47c0.169,0.585,0.03,1.328-0.105,2.112c-0.054,0.283-0.107,0.584-0.144,0.871
					l-0.95,0.254l0.343,0.444c0.197,0.26,0.409,0.515,0.621,0.77c0.46,0.571,0.938,1.16,1.332,1.797l0.046,0.071
					c0.314,0.517,0.967,1.596,0.835,2.011c-0.737,2.335,0.283,3.566,1.18,4.653c0.37,0.442,0.721,0.864,0.954,1.344l0.889,1.79
					l-0.33-2.043c-0.092-0.556-0.254-1.078-0.401-1.584c-0.19-0.619-0.368-1.2-0.406-1.789c-0.239-3.755-0.57-7.413-1.939-10.83
					c-0.142-0.345-0.171-0.765-0.211-1.214c-0.03-0.418-0.066-0.852-0.186-1.254c-0.229-0.754-0.204-1.461,0.072-2.001
					c0.223-0.438,0.6-0.729,1.055-0.819c0.489-0.103,0.897-0.006,1.211,0.278c0.413,0.379,0.664,1.083,0.724,2.042
					c0.328,5.702,2.471,10.673,4.528,14.78l0.209,0.416c1.483,2.936,2.87,5.709,1.45,9.296c-0.274,0.706-0.061,1.87,0.321,2.506
					c2.038,3.411,5.074,5.306,8.015,7.143c0.767,0.479,1.563,0.973,2.325,1.492c0.254,0.166,0.494,0.362,0.732,0.555
					c0.947,0.758,2.022,1.617,3.661,1.023c3.158-1.135,3.916-0.754,5.771,2.914c1.405,2.765,5.422,4.698,8.01,3.97
					c-0.049,1.444,0.591,2.548,1.212,3.625c0.698,1.2,1.359,2.335,1.072,3.896c-0.091,0.467,0.313,0.927,0.824,1.453
					c0.275,0.292,0.602,0.547,0.915,0.799c0.594,0.462,1.151,0.901,1.339,1.479c0.245,0.753,0.482,1.122,0.813,1.259
					c0.327,0.142,0.684,0.021,1.033-0.165l4.228,3.706l0.056-0.652c0.066-1.061,0.309-1.794,0.746-2.235
					c0.416-0.431,1.031-0.61,1.874-0.549c0.586,0.023,0.979,0.203,1.207,0.515c0.272,0.383,0.343,1.006,0.24,2.094
					c-0.048,0.462,0.075,0.901,0.192,1.327c0.086,0.332,0.175,0.65,0.175,0.942c0,0.566,0.025,1.147,0.051,1.725
					c0.063,1.579,0.128,3.203-0.308,4.556c-0.53,1.61-1.487,3.105-2.413,4.55c-0.404,0.635-0.826,1.295-1.202,1.939l-4.45,6.999
					l1.85,2.404l-0.728,1.854c-1.043,0.84-1.688,1.981-1.823,3.221c-0.142,1.286,0.265,2.583,1.142,3.648
					c0.829,1.014,1.512,2.237,1.923,3.449c0.435,1.288,0.802,2.643,1.15,3.957c0.377,1.4,0.771,2.848,1.251,4.234
					c0.907,2.608,1.943,5.058,3.088,7.267c0.811,1.577,1.912,3.132,3.257,4.636c1.141,1.252,2.44,2.332,3.697,3.374l0.632,0.525
					c0.778,0.652,1.609,1.254,2.405,1.835c0.288,0.212,0.571,0.416,0.857,0.628c-0.029,0.065-0.06,0.128-0.092,0.184
					c-0.199,0.404-0.402,0.818-0.355,1.252c0.098,0.845,0.268,1.692,0.423,2.515c0.312,1.532,0.601,2.981,0.447,4.379
					c-0.099,0.881-0.212,1.755-0.319,2.621c-0.334,2.663-0.68,5.417-0.607,8.231c0.044,1.721-0.106,3.491-0.257,5.206
					c-0.139,1.551-0.277,3.157-0.272,4.744c0.008,1.034,0.026,2.084,0.049,3.122c0.079,3.901,0.164,7.929-0.728,11.97
					c-0.463,2.09-0.162,4.394,0.133,6.61c0.123,0.94,0.248,1.914,0.315,2.841c0.022,0.355,0.266,0.683,0.487,0.87
					c1.859,1.591,2.147,3.927,2.449,6.393c0.07,0.596,0.149,1.199,0.248,1.797l-0.07,0.641l-0.119,0.04l0.006-0.176l-0.246,0.166
					l-0.238-0.463l-0.55,0.862l-0.095,1.205l0.46,0.172c0.018,0.064,0.035,0.109,0.058,0.146c0,0.002,0.004,0.004,0.007,0.006
					c-0.017,0.089-0.011,0.188,0.011,0.274l-0.705,1.184l0.095,0.185c0.317,0.628,0.654,1.206,0.983,1.753
					c0.662,1.114,1.285,2.175,1.461,3.289c0.636,4.01,2.211,7.374,4.8,10.268c0.676,0.769,1.883,0.882,2.94,0.987l0.31,0.028
					c0.005,0,0.005,0,0.005,0c0.434,0.044,0.825-0.359,1.143-0.675c0.098-0.097,0.18-0.178,0.256-0.234l0.433-0.327l-1.847-1.145
					l2.16,0.208l-0.076-0.539c-0.35-2.436-0.35-2.436,1.679-6.145c1.024-1.867,0.883-3.247-0.477-4.624
					c-0.502-0.507-0.881-1.232-1.319-2.073c-0.159-0.297-0.325-0.614-0.504-0.943c3.151-0.64,3.009-2.903,2.882-4.914
					c-0.029-0.48-0.065-0.963-0.054-1.426l4.185,0.822l-2.467-1.19c-1.558-0.747-2.851-1.543-2.828-3.479l5.084,0.485l-0.222-0.55
					c-0.856-2.152-1.082-3.416-0.73-4.093c0.326-0.628,1.227-0.955,3.007-1.09c1.382-0.102,2.996-0.896,4.123-2.027
					c0.62-0.62,0.947-1.579,0.911-2.693c-0.051-1.723-0.915-3.525-2.214-4.579c-0.816-0.665-1.016-1.155-0.729-1.947
					c0.316,0.162,0.642,0.327,0.962,0.489c0.89,0.452,1.814,0.927,2.699,1.438c1.095,0.634,2.13,0.721,2.987,0.261
					c0.868-0.473,1.51-1.48,1.857-2.918l2.578-3.527c1.749-1.436,2.482-3.561,3.19-5.615c0.456-1.313,0.938-2.68,1.669-3.807
					c0.299-0.452,0.82-1.597,0.546-2.253c-0.444-1.068-0.546-1.958-0.321-2.706c0.327-1.067,1.311-1.807,2.667-2.584l0.199-0.103
					c1.628-0.93,3.314-1.889,5.002-2.769c0.209-0.111,0.61-0.085,0.816,0.046c0.868,0.558,1.689,0.709,2.44,0.444
					c0.918-0.315,1.723-1.241,2.47-2.811c2.896-6.128,4.767-11.462,4.517-17.57c-0.046-1.078,0.272-2.358,0.791-3.192
					c0.88-1.411,1.916-2.733,2.921-4.02c0.403-0.516,0.808-1.038,1.206-1.564c0.024-0.03,0.065-0.059,0.104-0.101
					c0.083-0.064,0.189-0.151,0.264-0.282c0.35-0.618,0.715-1.216,1.075-1.817c0.856-1.42,1.742-2.888,2.38-4.473
					C422.073,275.401,421.267,273.272,418.887,271.999z"/>
			</g>
			<path style="opacity:0.2;fill:#95B374;" d="M380.917,302.433c-18.762-62.676-117.117-12.393-94.432-148.334
				c3.269-19.606,7.98-38.205,16.862-54.682c-30.917,23.857-52.405,59.822-56.834,101.719
				c-8.601,81.366,50.391,154.303,131.756,162.896c61.593,6.51,118.343-25.722,146.022-77.07
				C495.173,309.434,392.295,340.445,380.917,302.433z"/>
		</g>
		<g>
			<path style="fill:#BAC9E7;" d="M234.022,133.88v-3.54c0-0.823-0.666-1.485-1.481-1.485h-1.105c-0.699,0-1.33-0.443-1.557-1.1
				c-0.169-0.504-0.375-0.996-0.612-1.465c-0.301-0.635-0.166-1.391,0.321-1.887l0.783-0.781c0.579-0.574,0.579-1.516,0-2.097
				l-2.504-2.502c-0.582-0.579-1.52-0.579-2.101,0l-0.779,0.777c-0.493,0.494-1.252,0.624-1.88,0.316
				c-0.476-0.229-0.966-0.431-1.468-0.605c-0.665-0.231-1.105-0.857-1.105-1.556v-1.102c0-0.818-0.665-1.483-1.489-1.483h-3.535
				c-0.821,0-1.488,0.665-1.488,1.483v1.102c0,0.699-0.436,1.325-1.1,1.556c-0.503,0.174-0.997,0.375-1.466,0.605
				c-0.634,0.308-1.382,0.178-1.879-0.316l-0.784-0.777c-0.578-0.579-1.515-0.579-2.095,0l-2.507,2.502
				c-0.578,0.581-0.578,1.522,0,2.097l0.773,0.781c0.503,0.496,0.63,1.252,0.319,1.887c-0.229,0.469-0.429,0.961-0.604,1.465
				c-0.229,0.657-0.854,1.1-1.556,1.1h-1.1c-0.823,0-1.489,0.662-1.489,1.485v3.54c0,0.819,0.666,1.483,1.489,1.483h1.1
				c0.702,0,1.326,0.443,1.556,1.107c0.175,0.501,0.375,0.988,0.604,1.464c0.311,0.63,0.184,1.389-0.319,1.881l-0.773,0.779
				c-0.578,0.585-0.578,1.52,0,2.103l2.507,2.502c0.58,0.577,1.517,0.577,2.095,0l0.784-0.784c0.497-0.49,1.245-0.622,1.879-0.313
				c0.469,0.229,0.963,0.436,1.466,0.608c0.664,0.229,1.1,0.855,1.1,1.552v1.105c0,0.818,0.667,1.48,1.488,1.48h3.535
				c0.824,0,1.489-0.663,1.489-1.48v-1.105c0-0.697,0.44-1.323,1.105-1.552c0.502-0.172,0.992-0.379,1.468-0.608
				c0.628-0.309,1.387-0.177,1.88,0.313l0.779,0.784c0.581,0.577,1.519,0.577,2.101,0l2.504-2.502c0.579-0.583,0.579-1.519,0-2.103
				l-0.783-0.779c-0.487-0.492-0.622-1.251-0.321-1.881c0.237-0.477,0.443-0.963,0.612-1.464c0.227-0.663,0.857-1.107,1.557-1.107
				h1.105C233.356,135.364,234.022,134.7,234.022,133.88z M217.936,140.145c-4.966,0.392-9.085-3.723-8.69-8.688
				c0.313-3.912,3.476-7.073,7.383-7.382c4.966-0.391,9.077,3.72,8.686,8.688C225.01,136.67,221.841,139.838,217.936,140.145z"/>
			<g>
				<g>
					<path style="fill:none;stroke:#598E5F;stroke-width:0.5;stroke-miterlimit:10;stroke-dasharray:2,2;" d="M157.988,351.31
						c0.507-21.586-23.426-39.266-35.467-55.826c-12.236-16.832-19.341-40.186-14.4-61.071
						c4.229-17.875,17.912-29.097,35.499-30.633c14.936-1.303,30.806,8.212,44.065-0.958c19.93-13.778,5.542-40.893,7.716-45.391"/>
					<path style="fill:#32436B;" d="M224.628,133.396v-6.433c0-1.49-1.211-2.702-2.699-2.702h-2.002c-1.277,0-2.409-0.8-2.821-2.005
						c-0.317-0.913-0.691-1.804-1.104-2.663c-0.561-1.148-0.327-2.52,0.573-3.424l1.414-1.412c1.054-1.052,1.054-2.769,0-3.816
						l-4.546-4.55c-1.059-1.055-2.765-1.055-3.818,0l-1.414,1.415c-0.901,0.904-2.275,1.135-3.423,0.579
						c-0.859-0.416-1.749-0.789-2.669-1.108c-1.194-0.415-1.999-1.55-1.999-2.823v-2.001c0-1.491-1.21-2.698-2.694-2.698h-6.433
						c-1.494,0-2.703,1.207-2.703,2.698v2.001c0,1.273-0.805,2.408-2.01,2.823c-0.913,0.319-1.8,0.692-2.662,1.108
						c-1.143,0.556-2.511,0.325-3.416-0.579l-1.418-1.415c-1.052-1.055-2.763-1.055-3.816,0l-4.547,4.55
						c-1.053,1.047-1.053,2.764,0,3.816l1.407,1.412c0.907,0.904,1.144,2.276,0.585,3.424c-0.418,0.858-0.792,1.749-1.104,2.663
						c-0.416,1.205-1.557,2.005-2.827,2.005h-1.998c-1.493,0-2.702,1.211-2.702,2.702v6.433c0,1.491,1.209,2.696,2.702,2.696h1.998
						c1.27,0,2.411,0.803,2.827,2.004c0.312,0.916,0.686,1.803,1.104,2.666c0.559,1.151,0.322,2.523-0.585,3.42l-1.407,1.411
						c-1.053,1.057-1.053,2.765,0,3.819l4.547,4.547c1.053,1.054,2.764,1.054,3.816,0l1.418-1.413
						c0.905-0.896,2.273-1.135,3.416-0.577c0.862,0.42,1.749,0.785,2.662,1.108c1.205,0.41,2.01,1.55,2.01,2.819v2.003
						c0,1.488,1.209,2.697,2.703,2.697h6.433c1.484,0,2.694-1.209,2.694-2.697v-2.003c0-1.269,0.805-2.409,1.999-2.819
						c0.92-0.323,1.81-0.688,2.669-1.108c1.147-0.559,2.521-0.319,3.423,0.577l1.414,1.413c1.054,1.054,2.76,1.054,3.818,0
						l4.546-4.547c1.054-1.054,1.054-2.763,0-3.819l-1.414-1.411c-0.9-0.897-1.134-2.27-0.573-3.42
						c0.413-0.863,0.787-1.75,1.104-2.666c0.412-1.201,1.544-2.004,2.821-2.004h2.002
						C223.417,136.092,224.628,134.887,224.628,133.396z M195.395,144.776c-9.028,0.716-16.503-6.76-15.793-15.788
						c0.561-7.099,6.313-12.856,13.418-13.415c9.02-0.71,16.497,6.762,15.785,15.793
						C208.246,138.463,202.49,144.218,195.395,144.776z"/>
				</g>
				<g>
					<path style="fill:none;stroke:#598E5F;stroke-width:0.5;stroke-miterlimit:10;stroke-dasharray:2,2;" d="M525.386,120.687
						c13.782-32.301,41.581-43.319,63.804-40.855c13.954,1.547,32.477,13.722,39.606,35.565c5.868,17.985,4.922,40.893,1.927,60.036
						c-2.569,16.437-5.323,29.793-3.852,46.839c1.489,17.255,8.672,29.303,14.498,42.968c8.88,20.83,13.625,39.688,8.155,65.053
						c-4.569,21.187-12.328,36.264-24.861,43.959c-11.153,6.849-23.264,9.439-34.965,12.139c-3.83,0.884-13.128,4.738-14.784,3.557"
						/>
					<path style="fill:#BAC9E7;" d="M541.789,114.255c0,16.143-13.086,29.229-29.229,29.229c-16.144,0-29.227-13.087-29.227-29.229
						c0-16.142,13.083-29.229,29.227-29.229C528.703,85.027,541.789,98.113,541.789,114.255z"/>
					<polygon style="fill:#32436B;" points="494.131,110.554 506.426,133.526 518.721,133.526 532.656,102.697 523.401,102.697 
						513.39,127.438 503.143,110.129 					"/>
				</g>
			</g>
		</g>
		<g>
			<g>
				<g>
					<path style="fill:#BB535D;" d="M427.878,238.922c-5.547-3.637-11.357-6.921-17.374-9.822
						c-3.871-1.866-7.902-3.624-11.054-6.461c-3.146-2.835-5.418-7.414-5.418-7.414c3.685-1.317,7.002,1.384,9.469,4.361
						c-4.534-3.941-7.914-9.069-9.666-14.679c1.436-1.079,3.42,0.27,4.642,1.537c2.622,2.726,5.245,5.451,7.866,8.178
						c-1.53-2.612-3.064-5.224-4.598-7.835c-0.653-1.111-0.991-2.978,0.323-3.271c0.749-0.168,1.421,0.417,1.935,0.954
						c2.792,2.921,5.587,5.844,8.383,8.766c3.133,3.277,13.16,5.898,20.761,0.425c0.523-0.377,0.833-1.04,1.456-1.244
						c1.294-0.429,2.584,0.893,2.655,2.188c0.061,1.294-0.647,2.5-1.189,3.698c-2.676,5.9-1.31,13.21,3.325,17.791
						C435.977,238.254,431.194,241.094,427.878,238.922"/>
					<path style="fill:#FFFFFF;" d="M418.464,235.052c4.643,17.61,0.75,48.593,20.819,69.181
						c8.534,8.752,28.544,22.166,41.568,23.674c25.985,3.016,39.791-10.23,44.255-13.875c12.299-10.037,7.888-40.19-1.256-52.27
						c-9.368-12.373-37.332,18.978-48.16,17.564c-10.161-1.324-16.057-10.557-20.5-18.795c-4.897-9.066-14.7-30.212-19.056-31.519
						C434.661,228.573,426.572,232.773,418.464,235.052"/>
					<path style="fill:#BAC9E7;" d="M523.851,261.762c-5.142-6.791-15.88-0.41-26.318,6.494c-1.912,3.613-3.527,7.389-5.031,11.223
						c-2.573,6.576-4.746,13.307-7.22,19.924c-1.025,2.744-2.311,5.336-4.341,7.449c-1.903,1.988-4.521,3.533-7.293,2.951
						c-4.348-0.916-6.55-5.064-9.307-8.189c-1.475-1.676-3.108-2.854-5.292-3.299c-1.538-0.313-3.105-0.094-4.64,0.127
						c-1.396,0.199-2.823,0.357-4.234,0.34c-2.832-0.039-5.589-0.963-8.021-2.43c-2.429-1.467-4.673-3.486-6.573-5.623
						c-2.013-2.266-3.605-4.91-4.841-7.695c-0.639-1.439-1.122-2.939-1.728-4.387c-0.644-1.533-1.229-3.086-1.753-4.664
						c-0.892-2.674-1.606-5.402-2.174-8.164c-0.079-0.275-0.153-0.555-0.225-0.824c-0.319-1.217-0.542-2.451-0.72-3.699
						c-0.335-2.387-0.522-4.815-0.702-7.221c-0.189-2.521-0.254-5.051-0.225-7.578c0.034-2.529,0.16-5.055,0.36-7.574
						c0.156-1.969,0.149-3.931,0.729-5.798c-1.889,0.691-3.853,1.37-5.84,1.928c4.643,17.61,0.75,48.593,20.819,69.181
						c8.534,8.752,28.544,22.166,41.568,23.674c25.985,3.016,39.791-10.232,44.255-13.875
						C537.405,303.994,532.994,273.842,523.851,261.762"/>
					<path style="fill:none;stroke:#2E4369;stroke-miterlimit:10;" d="M421.26,240.684c5.584-0.18,13.88-2.563,18.273-5.849"/>
					<g>
						<path style="fill:none;stroke:#2E4369;stroke-width:0.5;stroke-miterlimit:10;" d="M469.531,280.301
							c-1.825,2.338-3.042,5.102-3.515,7.982"/>
						<path style="fill:none;stroke:#2E4369;stroke-width:0.5;stroke-miterlimit:10;" d="M471.935,281.068
							c-1.245,3.707-1.178,7.803,0.192,11.469"/>
						<path style="fill:none;stroke:#2E4369;stroke-width:0.5;stroke-miterlimit:10;" d="M474.831,281.693
							c-0.443,2.354,0.116,4.865,1.529,6.838"/>
					</g>
				</g>
				<path style="fill:#232743;" d="M544.089,200.352c0.739-3.811,1.888-8.174,5.362-9.785c3.915-1.817,8.345,0.999,11.337,4.107
					c5.252,5.458,9.098,12.308,11.069,19.697c1.458,5.473,1.958,11.374,4.907,16.174c4.565,7.429,13.616,10.249,21.79,13.007
					c8.174,2.754,17.093,6.893,19.896,15.188c2.344,6.918-0.347,14.852,1.992,21.77c4.182,12.385,21.093,14.516,28.793,24.984
					c4.332,5.895,5.12,14.31,1.958,20.988c-3.338,7.049-10.244,11.517-16.861,15.488c-5.995,3.594-15.318,7.791-22.12,9.213
					c-19.068,3.992-68.54-6.475-72.649-61.725C536.921,253.949,542.248,209.825,544.089,200.352"/>
				<g>
					<path style="fill:#FFFFFF;" d="M584.958,394.779c-1.381-8.685-1.931-17.52-1.425-26.309c0.513-8.914,2.341-17.467,4.795-26.01
						c4.895-17.031,11.988-34.902,8.943-52.99c-1.638-9.73-6.538-18.602-13.433-25.332c-2.874-1.541-5.893-2.883-8.979-4.016
						c-10.333-3.789-21.427-5.529-29.503-7.723c-14.406-1.252-28.919,3.631-38.747,12.328c-3.076,2.717-5.696,5.789-7.847,9.102
						c-5.682,12.445-5.639,27.041-3.028,40.322c0.769,3.916,1.708,7.813,2.707,11.676c1.054,4.072,2.135,8.203,2.286,12.441
						c0.311,8.764-1.463,17.48-2.891,26.066c-2.928,17.607-4.863,35.445-4.766,53.33c0.053,8.969,0.654,17.922,1.762,26.81
						c31.867,6.506,65.041,7.455,96.813,2.688c3.709-0.557,4.943,0.582,7.711-1.381
						C591.148,430.475,587.712,412.086,584.958,394.779"/>
					<path style="fill:#BAC9E7;" d="M584.958,394.779c-1.381-8.685-1.931-17.52-1.425-26.309c0.513-8.914,2.341-17.467,4.795-26.01
						c4.895-17.031,11.988-34.902,8.943-52.99c-1.638-9.73-6.538-18.602-13.433-25.332c-2.874-1.541-5.893-2.883-8.979-4.016
						c-10.333-3.789-21.427-5.529-29.503-7.723c-9.92-0.863-19.89,1.186-28.349,5.383c0.104,0.01,0.206,0.035,0.311,0.025
						c29.019-2,40.912,3.566,41.874,16.535c0.183,2.426,0.663,4.813,0.844,7.228c0.219,2.955,0.732,5.855,1.432,8.73
						c1.529,6.303,3.792,12.43,4.732,18.873c0.886,6.08,0.307,12.146-1.733,17.93c-1.902,5.406-4.865,10.883-8.711,15.086
						c-0.378,0.418-1.05,1.039-1.159,1.613c-0.111,0.59,0.305,0.994,0.722,1.352c0.904,0.773,2.076,1.252,3.174,1.656
						c1.115,0.414,2.276,0.605,3.376,1.092c1.054,0.465,2.028,1.061,2.94,1.772c3.75,2.926,6.176,7.578,6.847,12.34
						c1.66,11.76-5.921,22.838-13.26,31.031c-7.609,8.486-16.719,15.395-24.184,24.021c-7.705,8.902-12.715,19.738-15.673,31.193
						c24.393,2.838,49.148,2.498,73.106-1.098c3.709-0.557,4.943,0.582,7.711-1.381
						C591.148,430.475,587.712,412.086,584.958,394.779"/>
					<path style="fill:none;stroke:#2E4369;stroke-width:0.5;stroke-miterlimit:10;" d="M504.723,323.442
						c-0.557,6.274,1.58,12.718,5.732,17.299c1.472,1.625,3.175,3.013,4.595,4.687c2.389,2.809,3.878,6.289,5.333,9.71"/>
					<path style="fill:none;stroke:#2E4369;stroke-width:0.5;stroke-miterlimit:10;" d="M508.041,351.181
						c4.17,3.272,8.344,6.549,12.68,9.588"/>
					<path style="fill:none;stroke:#2E4369;stroke-width:0.5;stroke-miterlimit:10;" d="M549.128,295.957
						c-0.068,4.33,1.462,8.666,4.214,11.941c3.346,3.977,8.421,6.48,10.625,11.223"/>
				</g>
				<g>
					<path style="fill:#BB535D;" d="M592.221,399.549c-2.913,2.25-6.009,4.441-8.019,7.561c-5.282,8.207-2.163,15.596-1.125,15.734
						c1.996,0.271,1.576-7.504,3.559-7.826c0.344,7.844,1.269,15.625,4.317,22.828c0.648,1.539,2.647,4.613,4.319,3.396
						c1.339-0.971-1.986-11.857-3.373-17.412c0.633,3.189,1.438,6.338,2.416,9.434c0.965,3.076,3.493,9.881,5.486,7.383
						c0.472-0.588-0.707-10.137-3.138-15.088c1.509,3.697,1.617,4.438,2.754,7.221c1.132,2.783,4.662,8.775,5.979,6.08
						c0.982-2.006-3.33-10.305-5.569-15.215c1.614,2.6,3.226,5.205,4.839,7.805c0.501,0.803,1.335,1.725,2.188,1.336
						c0.883-0.408,0.708-1.746,0.344-2.676c-1.716-4.355-4.412-8.311-5.585-12.855c-1.173-4.545-0.302-10.197,3.64-12.578
						c-3.124-2.654-5.815-5.848-7.931-9.402C595.277,396.623,593.574,398.504,592.221,399.549"/>
					<path style="fill:#FFFFFF;" d="M579.488,324.084c10.495,19.373,23.147,28.879,36.483,41.656
						c-5.542,6.605-11.082,13.217-16.626,19.822c-4.898,5.846-9.728,12.584-9.728,12.584l12.324,18.02
						c0,0,18.776-8.586,39.377-32.418c5.277-6.105,10.575-12.98,11.18-21.129c0.479-6.484-2.116-12.758-4.915-18.588
						c-12.032-25.066-28.981-46.104-47.847-71.971C584.356,250.984,548.392,266.676,579.488,324.084"/>
					<path style="fill:#BAC9E7;" d="M647.584,344.031c-12.032-25.066-28.981-46.104-47.847-71.971
						c-4.748-6.506-11.457-9.502-17.549-8.857c0.617,0.381,1.228,0.77,1.833,1.172c11.23,7.557,19.292,19.068,25.051,31.371
						c1.465,3.127,2.791,6.322,4.005,9.561c0.608,1.619,1.188,3.254,1.738,4.896c0.59,1.758,1.023,3.525,1.508,5.313
						c1.025,3.781,2.559,7.475,4.887,10.607c2.065,2.785,4.719,5.041,7.316,7.277c4.98,4.279,9.595,8.916,12.148,15.176
						c2.438,5.988,3.044,12.732,1.792,19.094c-1.388,7.053-5.232,12.949-10.141,17.957c-2.727,2.777-5.713,5.248-8.574,7.875
						c-3.068,2.818-6.287,5.455-9.504,8.09c-2.888,2.365-5.938,4.68-8.382,7.555c-1.041,1.227-1.938,2.625-2.337,4.217
						c-0.181,0.717-0.228,1.414-0.176,2.1c4.719-2.477,20.702-11.734,37.967-31.715c5.277-6.105,10.575-12.98,11.18-21.127
						C652.979,356.135,650.383,349.861,647.584,344.031"/>
					<path style="fill:none;stroke:#2E4369;stroke-width:0.5;stroke-miterlimit:10;" d="M618.633,363.406
						c4.124,0.478,8.433-1.219,11.191-4.41"/>
					<path style="fill:none;stroke:#2E4369;stroke-width:0.5;stroke-miterlimit:10;" d="M617.809,366.291
						c1.945,3.539,5.81,5.863,9.762,5.871"/>
					<path style="fill:none;stroke:#2E4369;stroke-width:0.5;stroke-miterlimit:10;" d="M619.495,365.307
						c1.799,1.209,4.074,1.52,6.204,1.197c2.127-0.324,4.126-1.234,6.007-2.313c0.068-0.037,0.15-0.104,0.134-0.18
						c-0.018-0.086-0.178-0.022-0.113,0.029"/>
					<path style="fill:none;stroke:#2E4369;stroke-miterlimit:10;" d="M595.345,395.293c3.041,6.18,7.337,11.703,12.528,16.107"/>
				</g>
				<path style="fill:#BAC9E7;" d="M518.289,256.518c-1.725,10.082,1.012,19.211,5.521,28.332
					c12.39-11.391,5.076-12.398,21.651,3.416c7.438-10.203,15.586-17.563,23.024-27.766c-7.435,7.652-28.884-15.518-51.479-2.355"/>
				<g>
					<g>
						<path style="fill:#BB535D;" d="M522.858,203.119c-3.791,5.577-6.313,12.04-7.317,18.746
							c-0.906,6.039-0.532,12.461,2.243,17.875c2.772,5.416,8.249,9.617,14.243,9.682c8.194,0.09,14.691-7.064,18.668-14.366
							c2.053-3.773,2.805-6.305,3.203-10.599c0.737-7.882-2.507-17.543-9.308-21.368
							C537.791,199.264,526.669,197.514,522.858,203.119"/>
						<path style="fill:#BB535D;" d="M527.813,231.321c1.036,11.661,0.793,28.989,0.508,35.089c-0.033,0.73-0.066,1.551,0.413,2.102
							c0.315,0.369,0.794,0.543,1.257,0.693c6.706,2.174,14.201,1.766,20.632-1.121c0.405-0.182,0.829-0.397,1.053-0.781
							c0.238-0.414,0.19-0.932,0.133-1.41c-1.44-12.17,0.318-25.947-1.122-38.12C544.36,228.97,534.737,231.195,527.813,231.321"/>
						<path style="fill:#BB535D;" d="M548.156,227.722c-0.432,1.27-0.733,2.654-0.178,3.889c1.151,2.546,5.58,3.021,8.201,1.43
							c2.619-1.59,3.694-4.447,4.07-7.152c0.177-1.27,0.143-2.745-1.001-3.58c-0.575-0.42-1.34-0.6-2.087-0.706
							C555.076,221.303,548.984,225.292,548.156,227.722"/>
						<path style="fill:#232743;" d="M539.38,203.311c-3.642,0.106-7.223,1.693-9.781,4.335c-2.852,2.944-4.342,6.962-6.74,10.293
							c-2.401,3.333-6.502,6.114-10.347,4.788c-3.419-1.183-4.893-5.268-4.893-8.95c0-20.524,17.075-25.039,23.294-26.026
							c7.286-1.159,18.687,0.01,27.051,8.792c5.109,5.366-1.792,16.928-3.322,24.277c-1.426-4.048-2.894-8.176-5.546-11.518
							C546.44,205.958,542.341,203.491,539.38,203.311"/>
						<path style="fill:#232743;" d="M539.968,217.558c-1.295-0.158-2.613-0.111-3.883,0.135c-0.34,0.065-0.694,0.158-0.92,0.406
							c-0.225,0.249-0.233,0.704,0.068,0.874c0.214,0.122,0.487,0.056,0.726-0.006c2.125-0.547,4.466-0.332,6.477,0.594
							c0.295,0.137,0.606,0.294,0.932,0.273c0.326-0.023,0.651-0.314,0.559-0.619c-0.057-0.178-0.229-0.299-0.393-0.396
							C542.293,218.072,540.858,217.666,539.968,217.558"/>
						<path style="fill:#232743;" d="M538.38,221.586c0-0.845,0.651-1.528,1.455-1.528c0.799,0,1.453,0.683,1.453,1.528
							c0,0.843-0.654,1.527-1.453,1.527C539.031,223.113,538.38,222.429,538.38,221.586"/>
						<path style="fill:#232743;" d="M523.403,216.748c-1.3,0.139-2.574,0.472-3.758,0.98c-0.315,0.137-0.643,0.301-0.809,0.583
							c-0.165,0.283-0.075,0.71,0.256,0.805c0.238,0.066,0.486-0.057,0.708-0.167c1.95-0.978,4.277-1.292,6.44-0.863
							c0.318,0.062,0.654,0.142,0.969,0.049c0.313-0.093,0.563-0.437,0.408-0.701c-0.093-0.156-0.287-0.228-0.469-0.285
							C525.782,216.72,524.292,216.653,523.403,216.748"/>
						<path style="fill:#232743;" d="M522.643,220.742c-0.187-0.79,0.303-1.574,1.085-1.75c0.783-0.176,1.567,0.322,1.749,1.112
							c0.184,0.791-0.305,1.575-1.086,1.751C523.606,222.033,522.823,221.535,522.643,220.742"/>
						<path style="fill:none;stroke:#232743;stroke-width:0.5;stroke-miterlimit:10;" d="M529.788,219.816
							c-1.054,3.482-2.937,6.696-5.433,9.28c-0.349,0.357-0.739,0.783-0.684,1.285c0.031,0.244,0.16,0.46,0.307,0.652
							c0.877,1.158,2.453,1.697,3.829,1.311"/>
						<path style="fill:#FFFFFF;" d="M521.646,234.379c3.902,2.52,9.131,2.686,13.182,0.426c-0.961,3.025-3.851,5.396-6.942,5.336
							C524.791,240.082,521.872,237.33,521.646,234.379"/>
						<path style="fill:#FFFFFF;" d="M550.128,233.124c0-1.826,1.436-3.305,3.209-3.305c1.771,0,3.21,1.479,3.21,3.305
							c0,1.825-1.438,3.304-3.21,3.304C551.564,236.428,550.128,234.949,550.128,233.124"/>
					</g>
					<g>
						<g>
							<path style="fill:#32436B;" d="M530.565,270.758c-2.242,1.752-1.77,2.406-2.225,5.125c-0.453,2.715,0.584,5.723,2.956,7.322
								c2.366,1.596,6.036,1.406,7.909-0.699c0.696-0.787,1.117-1.766,1.389-2.758c0.705-2.6,0.372-5.527-1.302-7.701
								c-1.672-2.168-6.382-3.121-7.718-2.078L530.565,270.758z"/>
							<path style="fill:#32436B;" d="M532.18,277.197c-1.046,12.043-3.209,23.996-6.46,35.684c-0.878,3.154-1.845,6.336-1.906,9.6
								c-0.148,7.73,6.094,37.775,10.737,44.143c3.134-4.848,10.396-41.391,10.773-43.516c0.374-2.084-0.088-4.211-0.552-6.277
								c-2.675-12.018-5.354-24.035-8.028-36.055c-0.29-1.299-0.662-2.725-1.81-3.488
								C533.784,276.523,531.694,277.127,532.18,277.197"/>
						</g>
						<g>
							<path style="fill:#FFFFFF;" d="M518.289,256.518c-0.295,4.123,2.094,8.395,2.55,12.504c0.453,4.105,1.638,8.201,3.984,11.557
								c2.46-4.41,5.986-8.184,10.17-10.887c-2.957-0.832-5.443-3.488-6.08-6.57c-0.425-2.055-0.355-7.156-0.346-10.916
								c-0.005,1.254-3.061,1.104-5.247,1.809C520.462,254.934,518.289,256.518,518.289,256.518z"/>
							<path style="fill:#FFFFFF;" d="M545.023,263.943c-3.786,1.998-7.322,4.355-11.318,5.793
								c5.536,1.738,7.422,9.389,12.728,11.781c0.836-2.881,2.439-5.522,4.583-7.563c1.434-1.363,3.1-2.461,4.46-3.904
								c3.58-3.807,4.528-9.408,5.269-14.652c-3.28-0.365-6.579-2.954-9.542-3.935C551.202,251.464,550.625,260.983,545.023,263.943
								z"/>
						</g>
					</g>
				</g>
				<path style="fill:#9E4350;" d="M528.237,248.82c6.591,1.644,14.008-3.528,16.004-9.822c-1.814,5.719-2.5,6.604-5.407,9.809
					c-2.501,2.757-6.664,5.299-10.274,5.408C528.439,252.816,528.237,248.82,528.237,248.82z"/>
				<path style="fill:#BAC9E7;" d="M502.465,290.277c-1.426,5.666-0.849,11.838,1.594,17.123c1.135,2.455,2.81,4.844,5.28,5.797
					c3.71,1.432,7.982-0.963,10.11-4.402c2.131-3.44,2.632-7.648,3.078-11.699c0.265-2.393,0.527-4.783,0.793-7.174
					C516.253,290.434,509.143,290.277,502.465,290.277"/>
				<path style="fill:#232743;" d="M496.102,375.714c0,0-11.389,41.5-12.889,53.5s0,15,0,15s38.363,12.611,70.788,10.5
					c30.712-2,48.124-8,48.124-8l-18.768-71c0,0-29.354,5.5-47.172,5.5C514.953,381.214,496.102,375.714,496.102,375.714z"/>
				<path style="fill:none;stroke:#2E4369;stroke-width:0.5;stroke-miterlimit:10;" d="M545.713,374.464
					c1.902-2.625,3.053-4.849,5.563-7.189c2.93-2.729,4.167-6.201,5.688-9.811"/>
				<g>
					<g>
						<path style="fill:#546F5B;" d="M421.635,149.553c-0.099-17.501,16.431-15.47,16.431-15.47
							C432.52,157.168,421.635,149.553,421.635,149.553z M418.459,149.898c-2.033-17.284-18.1-11.728-18.1-11.728
							C408.66,159.753,418.459,149.898,418.459,149.898z M421.407,175.645c0.153-2.895,0.248-5.721,0.294-8.432
							c4.693,1.419,15.122,1.796,21.544-19.112c0,0-15.528-1.947-21.588,8.462c-0.207-8.363-0.76-14.424-0.971-16.078
							c1.452-1.535,3.782-4.931,3.582-10.844c-0.287-8.55-5.248-11.64-5.248-11.64s-4.092-3.538-2.821-7.859
							c0,0-11.693,21.79,2.141,30.623c0.203,1.517,0.802,10.312,0.604,22.064c-5.043-16.407-26.678-10.99-26.678-10.99
							c10.454,22.524,23.121,17.31,26.57,15.328c-0.129,3.956-0.355,8.162-0.715,12.475c-7.258-15.446-33.335-11.365-33.335-11.365
							c11.156,23.571,26.515,21.265,32.536,19.222c-0.418,3.433-0.929,6.88-1.557,10.275c0,0,2.367-0.095,3.155,0
							c0.726-3.961,1.28-7.989,1.697-11.982c4.713,2.082,18.248,5.336,27.822-19.707
							C448.441,166.084,428.589,162.442,421.407,175.645z"/>
						<g>
							<defs>
								<path id="SVGID_00000034802392731444857130000004328955474703771777_" d="M421.635,149.553
									c-0.099-17.501,16.431-15.47,16.431-15.47C432.52,157.168,421.635,149.553,421.635,149.553z M418.459,149.898
									c-2.033-17.284-18.1-11.728-18.1-11.728C408.66,159.753,418.459,149.898,418.459,149.898z M421.407,175.645
									c0.153-2.895,0.248-5.721,0.294-8.432c4.693,1.419,15.122,1.796,21.544-19.112c0,0-15.528-1.947-21.588,8.462
									c-0.207-8.363-0.76-14.424-0.971-16.078c1.452-1.535,3.782-4.931,3.582-10.844c-0.287-8.55-5.248-11.64-5.248-11.64
									s-4.092-3.538-2.821-7.859c0,0-11.693,21.79,2.141,30.623c0.203,1.517,0.802,10.312,0.604,22.064
									c-5.043-16.407-26.678-10.99-26.678-10.99c10.454,22.524,23.121,17.31,26.57,15.328c-0.129,3.956-0.355,8.162-0.715,12.475
									c-7.258-15.446-33.335-11.365-33.335-11.365c11.156,23.571,26.515,21.265,32.536,19.222
									c-0.418,3.433-0.929,6.88-1.557,10.275c0,0,2.367-0.095,3.155,0c0.726-3.961,1.28-7.989,1.697-11.982
									c4.713,2.082,18.248,5.336,27.822-19.707C448.441,166.084,428.589,162.442,421.407,175.645z"/>
							</defs>
							<clipPath id="SVGID_00000114783997190547830290000010087934208495651759_">
								<use xlink:href="#SVGID_00000034802392731444857130000004328955474703771777_"  style="overflow:visible;"/>
							</clipPath>
							<g style="clip-path:url(#SVGID_00000114783997190547830290000010087934208495651759_);">
								<path style="fill:none;stroke:#598E5F;stroke-width:0.5;stroke-miterlimit:10;" d="M427.331,189.439
									c0.567-0.728,0.596-2.554,0.858-3.597c0.36-1.433,0.71-2.982,1.334-4.356c1.366-3.005,3.372-5.591,5.73-7.834
									c4.075-3.876,8.441-6.624,14.02-7.415"/>
								<path style="fill:none;stroke:#598E5F;stroke-width:0.5;stroke-miterlimit:10;" d="M432.007,189.619
									c0.851-5.136,4.641-9.61,8.103-13.31c2.011-2.148,4.057-4.274,6.465-6.076c1.367-1.022,4.079-2.352,4.857-3.637"/>
								<path style="fill:none;stroke:#598E5F;stroke-width:0.5;stroke-miterlimit:10;" d="M391.264,165.417
									c2.263,3.706,2.729,14.488,1.893,17.907"/>
								<path style="fill:none;stroke:#598E5F;stroke-width:0.5;stroke-miterlimit:10;" d="M393.014,164.749
									c2.335,2.417,7.734,11.578,8.056,14.797c0.528,5.287-0.313,6.129-1.079,8.994"/>
								<path style="fill:none;stroke:#598E5F;stroke-width:0.5;stroke-miterlimit:10;" d="M396.848,165.833
									c1.696,1.547,12.206,8.507,13.894,10.161c1.619,1.585,2.736,3.41,3.594,5.487c0.93,2.251,2.618,6.78,1.664,9.038"/>
								<path style="fill:none;stroke:#598E5F;stroke-width:0.5;stroke-miterlimit:10;" d="M426.791,168.035
									c0-4.974,0.913-9.765,4.706-13.314c2.042-1.911,5.146-3.706,7.893-4.357c1.603-0.379,4.714-1.083,5.927-0.496"/>
								<path style="fill:none;stroke:#598E5F;stroke-width:0.5;stroke-miterlimit:10;" d="M428.431,167.917
									c0.023-7.335,7.038-11.033,13.828-11.033"/>
								<path style="fill:none;stroke:#598E5F;stroke-width:0.5;stroke-miterlimit:10;" d="M391.896,151.128
									c1.058,0.91,9.173,3.703,9.173,14.209"/>
								<path style="fill:none;stroke:#598E5F;stroke-width:0.5;stroke-miterlimit:10;" d="M399.99,150.408
									c8.32,2.668,10.006,19.066,9.893,18.886"/>
								<path style="fill:none;stroke:#598E5F;stroke-width:0.5;stroke-miterlimit:10;" d="M397.292,150.588
									c1.129,1.935,3.35,3.517,4.727,5.355c1.264,1.689,2.23,3.533,3.054,5.477c0.786,1.856,2.495,5.048,1.754,6.975"/>
								<path style="fill:none;stroke:#598E5F;stroke-width:0.5;stroke-miterlimit:10;" d="M423.848,151.917
									c-0.639-4.566,1.264-9.258,4.833-12.584c3.667-3.416,9.246-3.286,12.667-3.583"/>
								<path style="fill:none;stroke:#598E5F;stroke-width:0.5;stroke-miterlimit:10;" d="M429.849,149.689
									c-2.607-5.404,4.418-9.982,8.814-10.612"/>
								<path style="fill:none;stroke:#598E5F;stroke-width:0.5;stroke-miterlimit:10;" d="M417.257,111.018
									c-4.251,3.784-3.517,11.998-1.029,16.548c1.724,3.15,5.601,6.065,9.304,5.755"/>
								<path style="fill:none;stroke:#598E5F;stroke-width:0.5;stroke-miterlimit:10;" d="M418.337,112.997
									c-1.772,3.671-1.038,9.056,0.85,12.59c1.113,2.084,4.677,4.032,6.885,2.878"/>
								<path style="fill:none;stroke:#598E5F;stroke-width:0.5;stroke-miterlimit:10;" d="M405.207,136.199
									c9.624,5.145,8.891,14.217,9.891,16.467"/>
								<path style="fill:none;stroke:#598E5F;stroke-width:0.5;stroke-miterlimit:10;" d="M402.509,136.379
									c1.801-0.262,4.139,5.15,4.717,6.695c0.866,2.317,3.618,7.286,4.038,9.592"/>
								<path style="fill:none;stroke:#598E5F;stroke-width:0.5;stroke-miterlimit:10;" d="M409.703,136.019
									c7.561,5.897,7.404,15.616,6.061,16.897"/>
							</g>
						</g>
					</g>
					<polygon style="fill:#32436B;" points="401.431,192.5 408.478,219.833 428.431,219.833 434.097,192.5 					"/>
					<path style="fill:#232743;" d="M425.001,192.5c0.104,2.317,0.054,4.643-0.228,6.979c-0.522,4.317-2.165,8.929-5.666,11.733
						c-1.762,1.412-3.523,2.149-5.753,2.535c-1.848,0.32-4.419,0.425-6.026,1.624l1.15,4.461h19.953l5.666-27.333H425.001z"/>
				</g>
			</g>
			<path style="fill:none;stroke:#2E4369;stroke-width:0.5;stroke-miterlimit:10;" d="M507.142,430.646
				c2.676-9.997,12.927-12.143,21.331-15.507c8.487-3.397,17.56-5.876,25.369-10.744c6.335-3.949,10.542-8.32,14.536-14.51
				c-0.012-0.263-0.174-0.342-0.486-0.239"/>
			<path style="fill:none;stroke:#2E4369;stroke-width:0.5;stroke-miterlimit:10;" d="M533.893,438.396
				c0.709-2.807,1.131-5.339,3.056-7.811c2.94-3.774,7.759-5.892,11.944-7.939c13.25-6.479,19.662-14.233,18.5-15"/>
		</g>
		<g>
			<g>
				<path style="fill:#232743;" d="M280.011,289.842c31.301,38.234,34.681,95.355,70.86,129.008l-15.286,14.736
					c-1.125,1.086-2.439,2.244-4,2.174c-1.156-0.053-2.158-0.787-3.073-1.496c-20.988-16.244-38.917-37.016-49.191-61.486
					c-10.276-24.473-12.43-52.807-3.192-77.69C276.921,292.959,278.638,290.416,280.011,289.842"/>
				<g>
					<path style="fill:#32436B;" d="M227.544,277.592c-18.18,1.787-55.639,15.027-50.561,61.105
						c1.379,12.477,8.115,59.74-3.172,93.139c-1.027,3.029-2.163,6.397-1.019,9.352c0.825,2.121,2.682,3.551,4.544,4.672
						c7.141,4.311,15.466,5.723,23.596,6.982c30.433,4.713,62.104,8.195,91.591-1.775c1.564-0.525,3.25-1.199,4.117-2.705
						c0.797-1.381,0.705-3.115,0.587-4.725c-3.149-42.891-6.298-85.779-9.447-128.668c-0.507-6.895-1.08-14.041-4.239-20.031
						c-3.714-7.035-10.612-11.572-17.849-13.816c-7.236-2.242-14.882-2.455-22.431-2.652
						C236.053,278.281,228.846,278.094,227.544,277.592"/>
					<path style="fill:#232743;" d="M283.682,448.658c-5.884,1.303-11.896,2.961-17.96,2.961c-4.893,0-10.129-1.209-14.053-4.287
						c-0.912-0.721-1.76-1.543-2.48-2.463c-0.813-1.039-1.718-1.932-2.414-3.084c-1.346-2.215-2.193-4.695-3.875-6.695
						c-5.962-7.098-15.889-9.387-21.511-16.842c-0.692-0.92-1.401-1.928-1.761-3.029c-0.425-1.303-0.715-2.641-0.844-4.002
						c-0.264-2.713,0.043-5.428,0.746-8.055c1.515-5.646,4.797-10.584,8.514-14.99c3.607-4.275,7.578-8.252,10.831-12.826
						c1.614-2.275,3.454-4.881,4.123-7.627c0.624-2.549,0.691-5.883-1.172-7.936c-1.472-1.627-3.786-2.121-5.877-2.252
						c-2.349-0.145-4.732,0.09-6.985,0.734c-4.346,1.236-10.285,1.795-13.806-1.693c-3.505-3.477-2.33-9.477-0.612-13.504
						c1.027-2.412,2.117-4.828,3.264-7.186c1.232-2.529,2.588-4.998,4.119-7.355c2.977-4.586,6.634-8.816,11.092-11.984
						c4.822-3.43,10.174-5.656,15.595-7.914c2.663-1.107,5.313-2.258,7.834-3.676c2.467-1.389,4.724-3.264,6.721-5.271
						c3.09-3.115,5.646-7.066,6.08-11.418c0-0.004-0.002-0.004-0.002-0.004c-0.03-0.383-0.035-0.766-0.046-1.148
						c-0.006-0.082-0.016-0.16-0.028-0.242c-0.073-0.523-0.152-1.051-0.22-1.578c-0.101-0.789-0.179-1.58-0.26-2.371
						c-0.07-0.291-0.153-0.586-0.23-0.875c-0.885-0.316-1.804-0.623-2.772-0.924c-7.236-2.242-14.882-2.455-22.431-2.652
						c-7.209-0.188-14.416-0.375-15.718-0.877c-18.18,1.787-55.639,15.027-50.557,61.105c1.375,12.475,8.108,59.74-3.178,93.139
						c-1.025,3.029-2.162,6.397-1.017,9.352c0.825,2.121,2.682,3.551,4.544,4.674c7.143,4.309,15.466,5.721,23.596,6.98
						c30.433,4.713,62.104,8.195,91.591-1.775c1.565-0.525,3.25-1.199,4.117-2.705c0.25-0.438,0.409-0.912,0.511-1.4
						c-1.486-0.008-2.976,0.043-4.457,0.164C289.641,447.373,286.666,447.992,283.682,448.658"/>
					<g>
						<path style="fill:none;stroke:#232743;stroke-width:0.5;stroke-miterlimit:10;" d="M232.524,346.406
							c1.164-4.695,5.286-8.072,9.615-10.145c4.33-2.074,9.067-3.201,13.346-5.385c7.328-3.75,13.001-10.686,15.255-18.666"/>
						<path style="fill:none;stroke:#232743;stroke-width:0.5;stroke-miterlimit:10;" d="M228.503,410.58
							c-0.161-4.908,2.751-9.443,6.359-12.738c3.606-3.293,7.933-5.66,11.823-8.607c8.898-6.736,15.242-16.268,21.409-25.613"/>
						<path style="fill:none;stroke:#232743;stroke-width:0.5;stroke-miterlimit:10;" d="M251.809,349.752
							c6.593-6.293,12.549-13.262,17.745-20.772"/>
					</g>
				</g>
			</g>
			<g>
				<path style="fill:#BB535D;" d="M247.218,210.7c-6.123-1.511-11.955-2.884-18.227,2.804c-8.811,7.993-10.183,17.547-7.961,28.635
					c0.457,2.26-0.27,4.732-1.52,6.664c-1.276,1.971-3.532,3.021-5.352,4.5c-2.293,1.865-3.999,4.93-3.095,7.756
					c0.388,1.213,1.232,2.299,1.319,3.568c0.093,1.396-0.746,2.684-0.904,4.072c-0.144,1.223,0.253,2.455,0.811,3.553
					c1.603,3.145,4.662,5.512,8.104,6.262c1.711,0.373,3.477,0.363,5.209,0.602c4.696,0.648,9.431,3.111,13.951,1.697
					c3.814-1.193,6.342-4.938,7.436-8.791c1.096-3.852,1.055-7.926,1.482-11.914c0.43-3.984,1.436-8.125,4.176-11.037
					c0.96-1.023,2.106-1.861,2.997-2.945c1.769-2.148,2.363-5.102,2.055-7.875c-0.309-2.776-1.449-5.397-2.833-7.822
					C252.38,226.083,252.298,211.953,247.218,210.7"/>
				<path style="fill:#FFB299;" d="M227.684,284c1.474,1.219,3.073,2.291,4.762,3.176c4.11,2.156,8.816,3.238,13.449,3.178
					c3.192-0.041,6.355-0.742,9.344-1.887c-0.124-13.99,0.577-27.945,2.12-41.805c-8.175-2.545-16.091-5.768-24.464-9.695
					C234.398,252.98,235.652,270.008,227.684,284"/>
				<path style="fill:#FF7478;" d="M239.262,256.742c1.277,9.18,15.682,16.914,16.392,11.234
					C256.495,261.209,243.852,262.141,239.262,256.742"/>
				<g>
					<path style="fill:#FFB299;" d="M244.701,222.757c-4.406,2.258-8.995,10.663-9.909,15.386
						c-2.138,11.089-0.158,15.811,7.995,23.894c2.541,2.52,5.576,4.721,9.112,5.574c6.223,1.5,12.996-1.633,16.788-6.627
						c3.791-4.994,4.949-11.488,4.53-17.666c-0.457-6.648-2.727-13.345-7.364-18.28c-4.634-4.938-11.835-7.848-18.602-6.54
						C244.836,218.963,245.642,222.278,244.701,222.757"/>
					<path style="fill:#FFB299;" d="M238.208,240.75c-2.727-1.344-3.967-4.664-7.115-4.963c-2.984-0.287-5.054,2.476-5.442,4.923
						c-0.646,4.04,1.192,8.304,4.788,11.12c0.498,0.389,1.055,0.764,1.724,0.889c1.151,0.215,2.298-0.355,3.159-1.016
						C239.012,248.887,239.897,243.891,238.208,240.75"/>
					<g>
						<path style="fill:#232743;" d="M245.095,239.655c1.178-0.979,1.915-1.963,3.97-2.361c1.561-0.301,3.511-0.3,4.966,0.359
							c0.132-0.696-0.199-1.502-1.121-1.627C249.688,235.592,246.097,237.12,245.095,239.655"/>
						<path style="fill:#232743;" d="M248.285,239.822c0.095-0.713,0.747-1.212,1.459-1.115c0.719,0.094,1.219,0.751,1.124,1.463
							c-0.094,0.713-0.746,1.212-1.459,1.118C248.694,241.189,248.193,240.535,248.285,239.822"/>
						<path style="fill:#232743;" d="M262.517,239.822c0.094-0.713,0.746-1.212,1.462-1.115c0.71,0.094,1.212,0.751,1.12,1.463
							c-0.092,0.713-0.744,1.212-1.46,1.118C262.925,241.189,262.423,240.535,262.517,239.822"/>
						<path style="fill:#232743;" d="M261.496,236.555c-0.088,0.406,0.006,0.854,0.255,1.187c1.036-0.533,2.252-0.647,3.415-0.523
							c1.159,0.121,2.283,0.466,3.403,0.808c-1.269-0.745-2.631-1.327-4.043-1.727C263.501,236.008,262.284,235.853,261.496,236.555
							"/>
						<path style="fill:none;stroke:#BB535D;stroke-width:0.5;stroke-miterlimit:10;" d="M258.974,238.858
							c0.12,1.785,0.881,3.524,2.116,4.827c0.668,0.709,1.491,1.316,1.891,2.203c0.629,1.402-0.169,3.252-1.614,3.752
							c-1.201,0.416-2.514-0.031-3.788-0.037"/>
						<path style="fill:none;stroke:#BB535D;stroke-miterlimit:10;" d="M253.097,252.908c1.553,1.426,3.469,2.535,5.556,2.809
							c2.09,0.273,4.352-0.381,5.729-1.969"/>
						<path style="fill:#FF7478;" d="M244.171,246.756c0.222-1.711,1.854-2.902,3.646-2.66c1.787,0.242,3.06,1.822,2.834,3.533
							c-0.223,1.711-1.856,2.902-3.644,2.662C245.218,250.049,243.947,248.469,244.171,246.756"/>
						<path style="fill:#FF7478;" d="M266.377,246.596c0.177-1.355,1.478-2.297,2.901-2.105c1.428,0.193,2.44,1.445,2.264,2.801
							c-0.175,1.354-1.478,2.297-2.901,2.104C267.213,249.201,266.198,247.949,266.377,246.596"/>
					</g>
					<g>
						<path style="fill:#BB535D;" d="M235.334,224.266c1.84,1.408,4.253,2.004,6.494,1.359c2.243-0.645,4.202-1.965,6.376-2.805
							c2.169-0.837,4.826-1.121,6.735,0.221c2.061,1.447,2.629,4.317,4.693,5.759c2.297,1.606,5.758,0.957,7.885,2.773
							c2.712,2.316,1.43,6.94,3.725,9.643c1.604,1.888,4.525,2.226,6.935,1.593c4.431-1.158,7.764-5.13,8.52-9.52
							c0.758-4.392-0.883-9.035-3.896-12.442c-3.02-3.406-7.297-5.633-11.782-6.693c-1.263-0.297-2.548-0.511-3.76-0.976
							c-2.964-1.138-5.157-3.658-8.005-5.053c-4.561-2.233-10.229-1.206-14.476,1.449
							C240.53,212.233,231.152,221.063,235.334,224.266"/>
						<path style="fill:#BB535D;" d="M235.954,222.303c-1.904,2.345-3.338,5.122-3.847,8.108c-0.512,2.986-0.052,6.182,1.54,8.747
							c0.755,1.217,1.78,2.363,1.929,3.791c0.184,1.832-1.145,3.539-1.051,5.379c0.078,1.566,1.327,2.994,2.858,3.266
							c-1.568-1.566-0.893-4.283,0.283-6.174c1.177-1.889,2.795-3.703,2.872-5.931c0.087-2.683-2.14-5.194-1.519-7.803
							c0.268-1.113,1.033-2.064,1.252-3.188c0.26-1.323-0.289-2.703-1.143-3.738C238.271,223.725,237.138,222.972,235.954,222.303"
							/>
					</g>
				</g>
			</g>
			<g>
				<path style="fill:#FFFFFF;" d="M231.691,274.568c-5.309,0.967-7.546,2.816-15.013,4.924c3.958,1.912,7.755,11.75,10.564,15.15
					c2.806,3.4,6.849,6.561,11.157,5.738c1.166-4.668,4.109-7.57,8.258-9.938c-5.948-1.84-9.814-4.297-13.845-9.074
					C231.833,280.203,231.141,277.377,231.691,274.568"/>
				<path style="fill:#FFFFFF;" d="M255.409,277.895c-0.354,7.236-1.34,8.973-4.74,10.992c-1.084,0.646-3.077,0.838-4.011,1.557
					c-0.266,0.203-0.324-0.076,0,0c3.924,0.926,8.602,3.211,12.244,4.979c0.594-5.217,2.496-10.494,5.824-14.527
					C260.844,279.17,258.33,278.625,255.409,277.895"/>
			</g>
			<g>
				<g>
					<path style="fill:#448E61;" d="M161.182,408.758l44.419-48.014c2.264-2.445,6.061-2.58,8.48-0.297l32.02,30.191
						c2.419,2.279,2.549,6.113,0.286,8.559l-44.424,48.016c-2.261,2.447-6.059,2.578-8.477,0.299l-32.021-30.193
						C159.047,415.039,158.917,411.201,161.182,408.758"/>
					<polygon style="fill:#FFFFFF;" points="161.352,413.662 209.616,361.494 245.372,395.207 197.104,447.377 					"/>
					<polygon style="fill:#BDDBBB;" points="213.705,374.023 219.328,367.943 238.335,385.863 232.708,391.941 					"/>
					<g>
						<polygon style="fill:#BAC9E7;" points="203.41,372.594 203.921,372.041 235.811,402.111 235.3,402.664 						"/>
						<polygon style="fill:#BAC9E7;" points="201.492,374.668 202.004,374.115 233.892,404.186 233.381,404.736 						"/>
						<polygon style="fill:#BAC9E7;" points="199.673,376.635 200.188,376.084 232.075,406.148 231.563,406.705 						"/>
						<polygon style="fill:#BAC9E7;" points="192.993,383.858 193.503,383.305 225.393,413.373 224.879,413.924 						"/>
						<polygon style="fill:#BAC9E7;" points="191.072,385.932 191.585,385.377 223.473,415.445 222.962,415.998 						"/>
						<polygon style="fill:#BAC9E7;" points="189.256,387.897 189.77,387.342 221.654,417.412 221.145,417.963 						"/>
						<polygon style="fill:#BAC9E7;" points="186.905,389.951 187.414,389.4 219.305,419.467 218.792,420.022 						"/>
						<polygon style="fill:#BAC9E7;" points="184.985,392.025 185.499,391.475 217.388,421.543 216.878,422.096 						"/>
						<polygon style="fill:#BAC9E7;" points="183.169,393.992 183.68,393.441 215.568,423.508 215.058,424.059 						"/>
						<polygon style="fill:#BAC9E7;" points="173.246,405.199 175.421,402.85 205.868,431.559 203.696,433.908 						"/>
						<polygon style="fill:#BAC9E7;" points="180.14,397.75 181.933,395.815 189.393,402.85 187.604,404.783 						"/>
						<polygon style="fill:#BAC9E7;" points="192.963,432.57 195.034,430.334 201.429,436.361 199.358,438.598 						"/>
					</g>
				</g>
				<g>
					<path style="fill:#FFB299;" d="M179.398,437.854c2.4,2.242,4.444,4.813,6.035,7.603c0.95,1.662,9.095,10.639,15.995,8.986
						c1.009-0.242,1.009-0.242,1.676-1.268c0.832-1.273-0.596-1.402-1.699-2.969c1.376,1.953,3.871,1.947,5.868,0.58
						c1.625-1.107,1.195-3.344-0.661-4.252c1.904,0.559,3.48-0.117,4.802-1.494c1.031-1.08,0.332-5.506-0.534-6.715
						c-0.864-1.211-1.688,1.75-2.266,0.994c-0.186-0.242-3.87-1.875,0.064-2.055c0.649-0.027,1.284-0.234,1.931-0.342
						c2.878-0.477,8.698-5.227,6.779-6.857c-3.238-2.756-16.555,0.219-21.828-3.143c-0.655-0.422-1.335-0.887-2.125-0.961
						c-1.26-0.115-2.33,0.772-3.226,1.596C186.479,430.994,182.751,434.436,179.398,437.854"/>
					<g>
						<path style="fill:#32436B;" d="M198.078,288.742c-8.556-0.273-14.59,7.848-20.468,14.121
							c-13.619,14.521-26.432,29.813-38.355,45.777c-5.948,7.961-11.91,16.77-12.112,26.732c-0.156,7.631,3.134,14.898,6.884,21.533
							c10.908,19.295,26.401,35.934,44.811,48.135c6.308-8.074,13.986-15.053,22.602-20.541
							c-7.854-18.076-19.223-34.592-33.266-48.34c19.378-12.387,33.498-32.853,38.267-55.478c1.215-5.75,1.837-11.783,0.348-17.461
							c-1.487-5.682-5.418-10.975-7.659-12.938L198.078,288.742z"/>
						<g>
							<path style="fill:none;stroke:#232743;stroke-width:0.5;stroke-miterlimit:10;" d="M160.429,376.83
								c1.963,0.506,4.056,0.502,6.02-0.016"/>
							<path style="fill:none;stroke:#232743;stroke-width:0.5;stroke-miterlimit:10;" d="M161.784,372.213
								c1.182,1.529,2.83,2.69,4.664,3.275"/>
							<path style="fill:none;stroke:#232743;stroke-width:0.5;stroke-miterlimit:10;" d="M162.63,366.854
								c0.752,3.027,2.733,5.574,4.665,8.016"/>
						</g>
						<g>
							<path style="fill:none;stroke:#232743;stroke-width:0.5;stroke-miterlimit:10;" d="M174.975,441.611
								c4.973-9.432,14.283-15.629,23.45-20.982"/>
							
								<line style="fill:none;stroke:#232743;stroke-width:0.5;stroke-miterlimit:10;" x1="177.731" y1="439.033" x2="180.487" y2="441.783"/>
							<path style="fill:none;stroke:#232743;stroke-width:0.5;stroke-miterlimit:10;" d="M179.281,436.691
								c1.111,1.049,2.193,2.141,3.226,3.268"/>
							<path style="fill:none;stroke:#232743;stroke-width:0.5;stroke-miterlimit:10;" d="M181.794,434.373
								c1.115,0.98,2.189,2.004,3.221,3.07"/>
							<path style="fill:none;stroke:#232743;stroke-width:0.5;stroke-miterlimit:10;" d="M184.459,431.57
								c1.188,0.959,1.906,2.518,3.3,3.129"/>
							<path style="fill:none;stroke:#232743;stroke-width:0.5;stroke-miterlimit:10;" d="M187.904,428.434
								c0.925,1.027,1.777,2.119,2.554,3.262"/>
							
								<line style="fill:none;stroke:#232743;stroke-width:0.5;stroke-miterlimit:10;" x1="191.11" y1="426.193" x2="193.392" y2="429.69"/>
							<path style="fill:none;stroke:#232743;stroke-width:0.5;stroke-miterlimit:10;" d="M194.239,424.309
								c0.645,1.008,1.288,2.014,1.932,3.023"/>
							<path style="fill:none;stroke:#232743;stroke-width:0.5;stroke-miterlimit:10;" d="M196.883,422.406
								c0.622,1.01,1.293,1.992,2.011,2.938"/>
						</g>
						<path style="fill:#232743;" d="M175.638,429.465c-7.018-2.897-12.568-7.135-16.233-13.875c-1.669-3.07-3.09-6.318-5.039-9.227
							c-2.181-3.248-4.894-5.57-7.983-7.92c-5.026-3.818-7.738-9.49-8.003-15.799c-0.487-11.699,4.973-21.334,12.452-29.889
							c3.762-4.303,7.789-8.389,11.333-12.883c4.379-5.551,7.074-11.246,9.307-17.936c2.396-7.189,7.038-12.303,11.938-17.924
							c4.619-5.303,9.323-10.586,15.674-13.799l-1.004-1.473c-8.556-0.273-14.59,7.848-20.468,14.121
							c-13.619,14.521-26.432,29.813-38.355,45.777c-5.948,7.961-11.91,16.77-12.112,26.732c-0.156,7.631,3.134,14.898,6.884,21.533
							c10.908,19.295,26.401,35.934,44.811,48.135c2.966-3.797,6.245-7.34,9.769-10.609
							C184.354,432.627,179.896,431.225,175.638,429.465z"/>
					</g>
				</g>
			</g>
		</g>
		<g>
			<g>
				<g>
					<path style="fill:#FFFFFF;" d="M328.949,323.791c-11.71,2.1-23.158,5.691-33.971,10.658
						c-5.349,2.453-10.71,5.385-14.285,10.057c-3.899,5.098-5.228,11.66-6.217,17.998c-4.231,27.064-4.367,54.762-0.401,81.863
						c0.362,2.479,0.925,5.229,2.986,6.645c1.372,0.949,3.128,1.09,4.795,1.197c45.616,2.982,91.482,5.963,136.971,1.453
						c-11.942-29.555-4.171-62.895-4.829-94.764c-0.089-4.203-0.362-8.535-2.242-12.297c-3.617-7.232-12.04-10.43-19.71-12.998
						C370.626,326.43,347.889,320.391,328.949,323.791"/>
					<path style="fill:#BAC9E7;" d="M412.794,427.852c-1.179-0.65-2.412-1.189-3.65-1.728c-1.682-0.734-3.446-1.279-5.235-1.691
						c-3.589-0.828-7.277-1.09-10.948-1.225c-7.425-0.268-14.865-0.156-22.087-2.18c-20.137-5.639-22.89-13.291-38.52-41.147
						c-1.553-2.766-4.395-5.203-4.67-8.461c-0.151-1.779,0.438-3.522,1.463-4.967c0.477-0.672,1.034-1.061,1.675-1.547
						c0.668-0.504,1.285-1.074,1.961-1.576c5.514-4.109,12.578-6.273,19.439-5.287c3.821,0.551,7.854,1.779,11.723,0.955
						c3.568-0.758,6.498-3.773,8.703-6.506c2.441-3.031,4.387-6.615,6.027-10.133c1.637-3.502,2.905-7.178,3.786-10.943
						c0.001-0.004,0.007-0.008,0.007-0.014c0.025-0.283,0.061-0.563,0.112-0.836c-18.523-5.691-37.459-9.674-53.63-6.775
						c-11.71,2.1-23.158,5.691-33.973,10.658c-5.347,2.453-10.708,5.385-14.283,10.057c-3.899,5.098-5.228,11.66-6.215,17.998
						c-4.233,27.064-4.369,54.762-0.404,81.863c0.363,2.479,0.926,5.225,2.985,6.645c1.374,0.949,3.13,1.09,4.799,1.197
						c45.614,2.982,91.48,5.963,136.969,1.453C415.457,445.322,413.656,436.678,412.794,427.852"/>
				</g>
				<path style="fill:none;stroke:#2E4369;stroke-miterlimit:10;" d="M346.525,346.443c4.137,24.443,8.275,48.881,12.413,73.324"/>
				<g>
					<path style="fill:none;stroke:#2E4369;stroke-width:0.5;stroke-miterlimit:10;" d="M316.822,373.488
						c0.925,4.096,3.917,7.457,7.188,10.193c3.268,2.732,6.927,5.047,9.883,8.098c3.896,4.022,6.38,9.113,8.804,14.109"/>
					<path style="fill:none;stroke:#2E4369;stroke-width:0.5;stroke-miterlimit:10;" d="M319.433,396.289
						c4.322,5.154,9.184,9.881,14.49,14.076"/>
					<path style="fill:none;stroke:#2E4369;stroke-width:0.5;stroke-miterlimit:10;" d="M365.893,389.959
						c3.108,8.637,10.92,14.76,18.654,19.973"/>
					<path style="fill:none;stroke:#2E4369;stroke-width:0.5;stroke-miterlimit:10;" d="M375.844,356.315
						c4.778,5.887,8.514,12.566,10.998,19.666c0.471,1.346,0.936,2.77,1.99,3.758"/>
				</g>
			</g>
			<g>
				<path style="fill:#FFFFFF;" d="M408.38,341.602c-3.926,16.1-5.54,32.752-4.778,49.299c0.171,3.607,0.455,7.248,1.587,10.682
					c1.606,4.881,4.823,9.061,8.074,13.063c8.404,10.342,17.422,20.195,26.99,29.492c1.682,1.639,3.439,3.293,5.614,4.203
					c1.926,0.803,4.06,0.975,6.15,0.943c13.013-0.193,26.213-7.604,38.444-3.201c-5.996-12.682-12.034-25.436-20.166-36.889
					c-5.919-8.342-12.889-15.896-19.83-23.424c-10.063-10.91-20.128-21.818-30.192-32.728
					C416.483,348.932,412.675,344.803,408.38,341.602"/>
				<path style="fill:#BAC9E7;" d="M464.386,446.928c-3.792-3.236-6.219-7.709-8.549-12.012c-1.186-2.188-2.364-4.387-3.73-6.469
					c-1.255-1.902-2.722-3.902-4.567-5.289c-2.105-1.58-4.8-2.541-7.235-3.49c-2.463-0.953-4.958-1.885-7.278-3.152
					c-4.793-2.615-8.01-6.895-9.279-12.162c-1.282-5.334-0.775-10.877-0.695-16.299c0.048-3.236,0.209-6.459,0.098-9.697
					c-0.116-3.398-0.364-6.791-0.826-10.16c-0.814-5.891-2.195-11.691-4.069-17.338c-3.138-3.359-6.339-6.621-9.873-9.258
					c-3.926,16.1-5.54,32.752-4.775,49.299c0.168,3.607,0.452,7.248,1.584,10.682c1.606,4.881,4.823,9.061,8.074,13.063
					c8.404,10.342,17.422,20.195,26.99,29.492c1.682,1.639,3.439,3.293,5.614,4.203c1.924,0.805,4.06,0.975,6.15,0.943
					c4.325-0.061,8.674-0.928,12.997-1.887C464.809,447.234,464.583,447.098,464.386,446.928"/>
			</g>
			<g>
				<path style="fill:#FF9C6E;" d="M327.972,308.647c0.477,9.605,0.952,19.213,1.43,28.814c0.021,0.469,0.048,0.953,0.303,1.381
					c0.324,0.541,0.969,0.926,1.594,1.285c3.904,2.254,8.819,2.35,12.951,4.955c3.33,2.098,6.475-0.42,9.459-1.393
					c1.664-0.545,3.331-1.221,4.409-2.326c1.827-1.867,1.554-4.434,1.198-6.742c-1.398-9.072-2.798-18.141-4.196-27.213
					C346.265,306.908,337.303,307.516,327.972,308.647"/>
				<path style="fill:#FF9C6E;" d="M333.141,267.746c-4.433,0.635-7.987,4.188-9.71,8.236c-1.723,4.047-1.904,8.551-1.852,12.935
					c0.1,8.375,1.119,17.15,5.97,24.053c4.846,6.898,14.552,11.137,22.275,7.541c2.99-1.395,5.406-3.795,7.172-6.535
					c3.912-6.07,4.7-13.514,5.39-20.656c0.577-5.965,1.047-12.406-2.137-17.52c-2.744-4.406-7.84-7.02-13.03-7.92
					C342.028,266.988,336.663,267.24,333.141,267.746"/>
				<path style="fill:#232743;" d="M331.694,286.426c-1.934-0.018-3.835,1.262-4.709,3.18c2.949-1.422,6.341-1.685,9.439-0.736
					c0.332-0.418,0.157-1.117-0.227-1.473c-0.387-0.352-0.908-0.455-1.399-0.547C333.543,286.629,332.286,286.402,331.694,286.426"
					/>
				<path style="fill:#232743;" d="M346.002,285.639c-0.595,0.223-1.171,0.498-1.72,0.83c-0.237,0.137-0.496,0.334-0.507,0.629
					c-0.028,0.541,0.696,0.639,1.181,0.541c0.999-0.209,1.996-0.416,2.992-0.625c1.465-0.303,3.01-0.602,4.425-0.084
					c0.62,0.229,1.256,0.611,1.887,0.422c-0.077-0.762-0.638-1.379-1.277-1.691c-0.641-0.311-1.357-0.367-2.059-0.42
					C349.082,285.096,347.246,285.174,346.002,285.639"/>
				<path style="fill:#232743;" d="M331.553,291.01c0-0.803,0.666-1.455,1.487-1.455c0.823,0,1.492,0.652,1.492,1.455
					c0,0.807-0.669,1.457-1.492,1.457C332.219,292.467,331.553,291.816,331.553,291.01"/>
				<path style="fill:#232743;" d="M347.195,290.983c0-0.789,0.704-1.43,1.573-1.43c0.867,0,1.571,0.641,1.571,1.43
					c0,0.793-0.704,1.434-1.571,1.434C347.899,292.416,347.195,291.775,347.195,290.983"/>
				<path style="fill:none;stroke:#BB535D;stroke-width:0.5;stroke-miterlimit:10;" d="M340.191,288.277
					c0.079,2.717-0.739,5.455-2.31,7.709c-0.719,1.035-1.62,2.027-1.835,3.26c-0.212,1.23,0.695,2.744,1.972,2.59"/>
				<path style="fill:#FFFFFF;" d="M332.533,305.043c4.162,2.822,10.151,2.742,14.233-0.189c-0.371,1.652-1.094,3.262-2.286,4.488
					c-1.189,1.225-2.884,2.035-4.615,1.961c-1.74-0.078-3.348-1.025-4.554-2.26C334.108,307.809,333.245,306.299,332.533,305.043"/>
				<path style="fill:#232743;" d="M323.431,261.336c-14.338-0.564-18.481,8.582-14.996,18.746
					c2.985,8.717,13.268,8.785,16.959,5.092c2.001-2,4.967-6.076,6.96-8.07c4.492-4.49,10.112-6.959,15.044-3.912
					c1.348,0.834,2.542,1.975,4.009,2.537c2.359,0.904,5.126,0.207,7.36,1.406c3.326,1.781,3.813,9.912,3.764,13.848
					c7.415,0,7.158-8.838,7.158-15.029c0-4.74,0.928-7.861-3.392-13.201c-0.908-1.123-2.178-6.889-8.579-6.889
					c-8.337,0-7.64-4.729-17.521-4.189C327.765,252.355,333.1,261.719,323.431,261.336"/>
				<path style="fill:#FF9C6E;" d="M359.973,294.033c0.503-2.078,1.39-4.086,2.625-5.939c0.613-0.926,1.408-1.873,2.617-2.193
					c1.392-0.369,2.968,0.254,3.831,1.236c0.868,0.98,1.143,2.244,1.195,3.465c0.135,3.34-1.328,6.705-3.99,9.205
					c-1.116,1.041-2.782,1.996-4.358,1.529c-2.02-0.603-2.196-2.895-2.006-4.678C360.054,295.066,360.225,293.479,359.973,294.033"
					/>
				<path style="fill:#BB535D;" d="M329.142,314.311c3.367,3.586,8.274,5.654,13.189,5.643c4.921-0.018,9.789-2.098,13.252-5.586
					c-2.818,4.51-8.061,7.398-13.377,7.367C336.886,321.709,331.676,318.768,329.142,314.311"/>
			</g>
			<g>
				<path style="fill:#FFFFFF;" d="M328.521,322.82c-3.364,1.375-9.911,1.467-13.271,2.846c-0.38,0.154-0.781,0.328-1.013,0.664
					c-0.324,0.469-0.22,1.096-0.107,1.656c1.22,5.924,2.455,11.895,4.765,17.488c2.309,5.59,5.786,10.854,10.731,14.344
					c4.298-6.176,10.469-11.033,17.484-13.756C337.473,340.701,329.107,334.018,328.521,322.82"/>
				<path style="fill:#FFFFFF;" d="M347.36,346.02c8.31-5.174,11.165-15.232,9.695-24.91c7.836,1.266,11.107,3.248,18.556,6.49
					c-4.619,9.986-5.794,18.207-12.429,26.984c-0.474,0.629-1.111,1.32-1.887,1.201c-0.564-0.084-0.963-0.574-1.32-1.014
					C356.701,350.736,352.077,347.82,347.36,346.02"/>
			</g>
			<g>
				<g>
					<path style="fill:#FF9C6E;" d="M369.935,426.434c21.44,3.422,43.594-10.695,64.376-4.916c1.467,0.408,3.005,0.988,3.791,2.156
						c-4.893,6.029-13.731,2.357-19.491,3.549c4.013-0.297,5.521,4.514,4.041,6.652c-0.925,1.338-2.712,2.18-3.266,3.672
						c-0.27,0.728-0.204,1.512-0.261,2.275c-0.37,4.98-6.028,8.545-11.613,9.279c-5.583,0.736-11.212-0.584-16.796-1.324
						c-6.015-0.799-12.147-0.922-18.2-0.371c-0.847,0.076-1.833,0.125-2.407-0.43c-0.341-0.33-0.444-0.793-0.53-1.23
						C368.314,439.127,368.507,432.297,369.935,426.434"/>
					<g>
						<path style="fill:none;stroke:#2E4369;stroke-miterlimit:10;" d="M378.11,426.535c0.455,0.777,0.905,1.559,1.35,2.342"/>
						<path style="fill:#32436B;" d="M376.867,427.029c-2.56,6.42-2.124,20.051,1.604,20.428c0,0,4.254,0.111,4.217-0.318
							c-0.592-6.939-1.715-12.596,1.061-20.611C381.771,426.713,378.459,426.768,376.867,427.029"/>
						<path style="fill:#232743;" d="M374.883,428.973c0-2.455,2.132-4.443,4.762-4.443c2.631,0,4.763,1.988,4.763,4.443
							c0,2.457-2.132,4.447-4.763,4.447C377.015,433.42,374.883,431.43,374.883,428.973"/>
						<path style="fill:#FFFFFF;" d="M375.838,428.815c0-2.016,1.703-3.648,3.807-3.648c2.103,0,3.81,1.633,3.81,3.648
							c0,2.02-1.707,3.65-3.81,3.65C377.541,432.465,375.838,430.834,375.838,428.815"/>
						<path style="fill:none;stroke:#2E4369;stroke-width:0.5;stroke-linecap:round;stroke-miterlimit:10;" d="M380.681,426.434
							c-0.306,0.983-0.584,2.006-1.066,2.932c0.013,0-0.088-0.063-0.075-0.063l-1.83-1.916"/>
						<path style="fill:none;stroke:#2E4369;stroke-width:0.5;stroke-miterlimit:10;" d="M377.434,427.055
							c0.73,0.576,1.407,1.223,2.013,1.932l0.169,0.111"/>
					</g>
				</g>
				<g>
					<path style="fill:#FFFFFF;" d="M274.196,347.113c-34.761,31.342-18.97,85.08-9.04,97.938
						c3.446,4.455,10.004,6.773,15.535,7.846c41.017,7.934,58.316,4.24,85.08-1.129c0.999-0.201,2.067-0.199,2.957-0.701
						c3.172-1.783,2.078-6.479,1.275-10.029c-1.366-6.047-0.479-12.576,2.445-18.039c-19.698-5.227-40.898-2.543-60.46-8.26
						c-1.124-0.328-2.268-0.699-3.176-1.438c-2.375-1.938-2.296-5.523-2.042-8.578c1.025-12.262,1.435-24.826-2.001-36.643
						c-3.439-11.811-4.961-25.348-16.398-29.891C288.373,338.19,279.014,342.772,274.196,347.113"/>
					<path style="fill:none;stroke:#2E4369;stroke-miterlimit:10;" d="M354.471,421.555c-3.749,5.291-6.443,11.332-7.869,17.662
						c-0.181,0.805,7.088,3.397,11.659,3.293c3.245-0.074,6.652-1.449,8.3-4.246"/>
					<path style="fill:none;stroke:#2E4369;stroke-miterlimit:10;" d="M347.892,443.912c-0.864,2.928-0.726,6.141,0.393,8.984"/>
					<path style="fill:#32436B;" d="M356.821,434c0-1.01,0.818-1.828,1.828-1.828c1.007,0,1.824,0.818,1.824,1.828
						c0,1.008-0.817,1.826-1.824,1.826C357.64,435.826,356.821,435.008,356.821,434"/>
					<path style="fill:none;stroke:#2E4369;stroke-width:0.7;stroke-miterlimit:10;" d="M304.204,413.285
						c-5.966,0.252-11.823,2.266-16.443,5.652"/>
					<path style="fill:none;stroke:#2E4369;stroke-width:0.7;stroke-miterlimit:10;" d="M307.413,415.225
						c-4.883,2.027-9.073,5.375-11.871,9.49"/>
					<path style="fill:none;stroke:#2E4369;stroke-width:0.7;stroke-miterlimit:10;" d="M309.35,417.147
						c-2.613,1.691-4.788,3.918-6.309,6.463"/>
				</g>
			</g>
			<g>
				<path style="fill:#32436B;" d="M438.979,379.416l-19.668,78.06l103.852-0.592l19.736-74.588
					c1.808-6.83-3.111-13.596-10.167-13.986l-73.192-4.029C449.947,363.754,441.326,370.1,438.979,379.416"/>
				<path style="fill:#232743;" d="M516.329,452.014c-2.934-1.922-6.016-3.625-8.758-5.826c-1.35-1.084-2.468-2.228-3.391-3.699
					c-0.877-1.406-1.601-2.9-2.341-4.381c-1.432-2.848-2.944-5.557-5.642-7.389c-2.447-1.658-5.335-2.512-8.246-2.891
					c-1.59-0.209-3.174-0.203-4.77-0.277c-1.934-0.094-3.857-0.289-5.795-0.342c-3.852-0.098-7.73-0.111-11.521-0.883
					c-2.683-0.545-5.39-2.072-7.496-3.783c-2.027-1.646-3.647-3.84-4.355-6.373c-0.389-1.395-0.516-2.947-0.597-4.391
					c-0.103-1.803,0.498-3.56,1.028-5.256c0.272-0.873,0.504-1.732,0.868-2.57c0.305-0.709,0.618-1.41,0.941-2.113
					c0.699-1.525,1.44-3.027,2.223-4.514c1.525-2.898,3.21-5.715,5.064-8.416c3.678-5.353,8.033-10.275,13.114-14.344
					c4.517-3.611,9.5-6.531,14.908-8.521l-32.025-1.764c-9.593-0.527-18.214,5.818-20.561,15.135l-19.668,78.06l101.728-0.576
					C519.779,454.996,518.252,453.273,516.329,452.014"/>
				<rect x="361.486" y="450.506" style="fill:#32436B;" width="60.319" height="6.971"/>
				<path style="fill:#8AB375;" d="M496.541,390.811c0,0-6.313,2.014-8.042,6.063c-1.723,4.047,1.131,9.377,3.365,8.654
					c2.234-0.729,4.115-2.672,5.044-5.371C497.834,397.457,496.541,390.811,496.541,390.811"/>
				<path style="fill:#8AB375;" d="M509.669,405.779c0,0-4.119-3.658-8.763-3.113c-4.645,0.547-9.07,4.959-7.599,6.246
					c1.473,1.291,4.054,1.787,7.077,1.262C503.407,409.645,509.669,405.779,509.669,405.779"/>
				<path style="fill:#8AB375;" d="M477.659,400.48c0,0,0.93,5.156,4.156,7.213c3.231,2.059,8.124,0.889,7.783-0.939
					c-0.341-1.83-1.761-3.615-3.942-4.814C483.474,400.736,477.659,400.48,477.659,400.48"/>
				<path style="fill:none;stroke:#232743;stroke-miterlimit:10;" d="M512.611,373.715c5.402,0.238,10.798,0.607,16.183,1.115
					c1.458,0.133,3.042,0.334,4.075,1.377c1.023,1.022,1.229,2.596,1.168,4.039c-0.097,2.293-0.737,4.522-1.368,6.73
					c-2.309,8.043-4.615,16.082-6.924,24.123"/>
			</g>
		</g>
	</g>
</g>
</svg>
